<?xml version="1.0" encoding="utf-8"?>
<!-- Generated by IcoMoon.io -->
<!DOCTYPE svg PUBLIC "-//W3C//DTD SVG 1.1//EN" "http://www.w3.org/Graphics/SVG/1.1/DTD/svg11.dtd">
<svg version="1.1" xmlns="http://www.w3.org/2000/svg" xmlns:xlink="http://www.w3.org/1999/xlink" width="32" height="32" viewBox="0 0 32 32">
<path d="M18.138 25.024h11.027c0.704 0 1.344-0.422 1.619-1.075s0.141-1.402-0.352-1.914c-2.432-2.528-2.963-6.266-3.475-9.875-0.755-5.35-1.613-11.373-9.248-12.16h-3.526c-7.571 0.794-8.422 6.81-9.171 12.166-0.506 3.616-1.037 7.354-3.443 9.882-0.486 0.512-0.621 1.261-0.346 1.907s0.915 1.069 1.619 1.069h15.296zM8.499 12.659c0.877-6.227 1.555-9.222 7.443-9.222 5.952 0 6.643 2.995 7.526 9.222 0.41 2.88 0.858 6.042 2.304 8.838h-19.552c1.427-2.797 1.875-5.958 2.278-8.838z"></path>
<path d="M16.531 32c2.048 0 3.738-1.498 4.051-3.45h-8.102c0.314 1.952 2.010 3.45 4.051 3.45z"></path>
</svg>
