<?xml version="1.0" encoding="utf-8"?>
<!-- Generator: Adobe Illustrator 21.0.0, SVG Export Plug-In . SVG Version: 6.00 Build 0)  -->
<svg version="1.1" id="Layer_1" xmlns="http://www.w3.org/2000/svg" xmlns:xlink="http://www.w3.org/1999/xlink" x="0px" y="0px"
	 viewBox="0 0 14.1 14.8" style="enable-background:new 0 0 14.1 14.8;" xml:space="preserve">
<path d="M7,0.1c-3,0-5.5,2.5-5.5,5.5c0,3,2.5,5.5,5.5,5.5s5.5-2.5,5.5-5.5C12.5,2.6,10.1,0.1,7,0.1z M7,10.3c-2.6,0-4.7-2.1-4.7-4.7
	C2.3,3,4.5,0.9,7,0.9s4.7,2.1,4.7,4.7C11.7,8.2,9.6,10.3,7,10.3z"/>
<path d="M11.4,10c-0.2-0.1-0.4,0-0.5,0.2c-0.1,0.2,0,0.4,0.2,0.5c1.3,0.6,2.1,1.9,2.1,3.3v0.3c0,0.2,0.2,0.4,0.4,0.4
	c0.2,0,0.4-0.2,0.4-0.4V14C14,12.3,13,10.7,11.4,10z"/>
<path d="M2.7,10c-1.5,0.7-2.5,2.3-2.5,4v0.3c0,0.2,0.2,0.4,0.4,0.4c0.2,0,0.4-0.2,0.4-0.4V14c0-1.4,0.8-2.7,2.1-3.3
	c0.2-0.1,0.3-0.3,0.2-0.5C3.1,9.9,2.9,9.9,2.7,10z"/>
</svg>
