<?xml version="1.0" encoding="UTF-8"?>
<svg width="758px" height="998px" viewBox="0 0 758 998" version="1.1" xmlns="http://www.w3.org/2000/svg" xmlns:xlink="http://www.w3.org/1999/xlink">
    <!-- Generator: Sketch 48.1 (47250) - http://www.bohemiancoding.com/sketch -->
    <title>B</title>
    <desc>Created with Sketch.</desc>
    <defs></defs>
    <g id="Artboard-Copy-7" stroke="none" stroke-width="1" fill="none" fill-rule="evenodd" transform="translate(-135.000000, 0.000000)">
        <path d="M135.539062,998 L135.539062,-4.1484375 L511.515625,-4.1484375 C588.078508,-4.1484375 649.487399,5.99143506 695.744141,26.2714844 C742.000882,46.5515337 778.230989,77.7686694 804.435547,119.923828 C830.640105,162.078987 843.742188,206.170343 843.742188,252.199219 C843.742188,295.037975 832.12121,335.369603 808.878906,373.195312 C785.636603,411.021022 750.545808,441.554571 703.605469,464.796875 C764.217751,482.570401 810.815592,512.876088 843.400391,555.714844 C875.985189,598.5536 892.277344,649.139031 892.277344,707.472656 C892.277344,754.412995 882.365333,798.048626 862.541016,838.380859 C842.716698,878.713092 818.2215,909.816297 789.054688,931.691406 C759.887875,953.566516 723.315975,970.086533 679.337891,981.251953 C635.359806,992.417374 581.470371,998 517.667969,998 L135.539062,998 Z M268.15625,416.945312 L484.855469,416.945312 C543.644825,416.945312 585.799352,413.071653 611.320312,405.324219 C645.044439,395.298127 670.451086,378.664179 687.541016,355.421875 C704.630945,332.179571 713.175781,303.013196 713.175781,267.921875 C713.175781,234.653479 705.200601,205.373173 689.25,180.080078 C673.299399,154.786983 650.513169,137.469448 620.890625,128.126953 C591.268081,118.784458 540.454787,114.113281 468.449219,114.113281 L268.15625,114.113281 L268.15625,416.945312 Z M268.15625,879.738281 L517.667969,879.738281 C560.506725,879.738281 590.584549,878.143245 607.902344,874.953125 C638.436351,869.484348 663.956929,860.369855 684.464844,847.609375 C704.972759,834.848895 721.834569,816.278117 735.050781,791.896484 C748.266993,767.514852 754.875,739.373857 754.875,707.472656 C754.875,670.102678 745.304783,637.632299 726.164062,610.060547 C707.023342,582.488794 680.477383,563.120499 646.525391,551.955078 C612.573398,540.789658 563.696934,535.207031 499.894531,535.207031 L268.15625,535.207031 L268.15625,879.738281 Z" id="B" fill="#000000"></path>
    </g>
</svg>