<?xml version="1.0" encoding="UTF-8"?>
<svg width="1000px" height="1000px" viewBox="0 0 1000 1000" version="1.1" xmlns="http://www.w3.org/2000/svg" xmlns:xlink="http://www.w3.org/1999/xlink">
    <!-- Generator: Sketch 48.1 (47250) - http://www.bohemiancoding.com/sketch -->
    <title>Combined Shape</title>
    <desc>Created with Sketch.</desc>
    <defs></defs>
    <g id="Artboard-Copy-27" stroke="none" stroke-width="1" fill="none" fill-rule="evenodd">
        <g id="Border-3" fill="#000000">
            <path d="M277.777778,555.555556 C247.095292,555.555556 222.222222,530.682486 222.222222,500 C222.222222,469.317514 247.095292,444.444444 277.777778,444.444444 C308.460264,444.444444 333.333333,469.317514 333.333333,500 C333.333333,530.682486 308.460264,555.555556 277.777778,555.555556 Z M500,333.333333 C469.317514,333.333333 444.444444,308.460264 444.444444,277.777778 C444.444444,247.095292 469.317514,222.222222 500,222.222222 C530.682486,222.222222 555.555556,247.095292 555.555556,277.777778 C555.555556,308.460264 530.682486,333.333333 500,333.333333 Z M500,555.555556 C469.317514,555.555556 444.444444,530.682486 444.444444,500 C444.444444,469.317514 469.317514,444.444444 500,444.444444 C530.682486,444.444444 555.555556,469.317514 555.555556,500 C555.555556,530.682486 530.682486,555.555556 500,555.555556 Z M500,777.777778 C469.317514,777.777778 444.444444,752.904708 444.444444,722.222222 C444.444444,691.539736 469.317514,666.666667 500,666.666667 C530.682486,666.666667 555.555556,691.539736 555.555556,722.222222 C555.555556,752.904708 530.682486,777.777778 500,777.777778 Z M500,1000 C469.317514,1000 444.444444,975.126931 444.444444,944.444444 C444.444444,913.761958 469.317514,888.888889 500,888.888889 C530.682486,888.888889 555.555556,913.761958 555.555556,944.444444 C555.555556,975.126931 530.682486,1000 500,1000 Z M500,111.111111 C469.317514,111.111111 444.444444,86.2380417 444.444444,55.5555556 C444.444444,24.8730695 469.317514,0 500,0 C530.682486,0 555.555556,24.8730695 555.555556,55.5555556 C555.555556,86.2380417 530.682486,111.111111 500,111.111111 Z M944.444444,333.333333 C913.761958,333.333333 888.888889,308.460264 888.888889,277.777778 C888.888889,247.095292 913.761958,222.222222 944.444444,222.222222 C975.126931,222.222222 1000,247.095292 1000,277.777778 C1000,308.460264 975.126931,333.333333 944.444444,333.333333 Z M944.444444,777.777778 C913.761958,777.777778 888.888889,752.904708 888.888889,722.222222 C888.888889,691.539736 913.761958,666.666667 944.444444,666.666667 C975.126931,666.666667 1000,691.539736 1000,722.222222 C1000,752.904708 975.126931,777.777778 944.444444,777.777778 Z M944.444444,1000 C913.761958,1000 888.888889,975.126931 888.888889,944.444444 C888.888889,913.761958 913.761958,888.888889 944.444444,888.888889 C975.126931,888.888889 1000,913.761958 1000,944.444444 C1000,975.126931 975.126931,1000 944.444444,1000 Z M944.444444,111.111111 C913.761958,111.111111 888.888889,86.2380417 888.888889,55.5555556 C888.888889,24.8730695 913.761958,0 944.444444,0 C975.126931,0 1000,24.8730695 1000,55.5555556 C1000,86.2380417 975.126931,111.111111 944.444444,111.111111 Z M944.444444,555.555556 C913.761958,555.555556 888.888889,530.682486 888.888889,500 C888.888889,469.317514 913.761958,444.444444 944.444444,444.444444 C975.126931,444.444444 1000,469.317514 1000,500 C1000,530.682486 975.126931,555.555556 944.444444,555.555556 Z M722.222222,555.555556 C691.539736,555.555556 666.666667,530.682486 666.666667,500 C666.666667,469.317514 691.539736,444.444444 722.222222,444.444444 C752.904708,444.444444 777.777778,469.317514 777.777778,500 C777.777778,530.682486 752.904708,555.555556 722.222222,555.555556 Z M277.777778,111.111111 C247.095292,111.111111 222.222222,86.2380417 222.222222,55.5555556 C222.222222,24.8730695 247.095292,0 277.777778,0 C308.460264,0 333.333333,24.8730695 333.333333,55.5555556 C333.333333,86.2380417 308.460264,111.111111 277.777778,111.111111 Z M722.222222,111.111111 C691.539736,111.111111 666.666667,86.2380417 666.666667,55.5555556 C666.666667,24.8730695 691.539736,0 722.222222,0 C752.904708,0 777.777778,24.8730695 777.777778,55.5555556 C777.777778,86.2380417 752.904708,111.111111 722.222222,111.111111 Z M277.777778,1000 C247.095292,1000 222.222222,975.126931 222.222222,944.444444 C222.222222,913.761958 247.095292,888.888889 277.777778,888.888889 C308.460264,888.888889 333.333333,913.761958 333.333333,944.444444 C333.333333,975.126931 308.460264,1000 277.777778,1000 Z M722.222222,1000 C691.539736,1000 666.666667,975.126931 666.666667,944.444444 C666.666667,913.761958 691.539736,888.888889 722.222222,888.888889 C752.904708,888.888889 777.777778,913.761958 777.777778,944.444444 C777.777778,975.126931 752.904708,1000 722.222222,1000 Z M-2.84217094e-14,1000 L3.28106305e-14,0 L111.111111,0 L111.111111,1000 L-2.84217094e-14,1000 Z" id="Combined-Shape"></path>
        </g>
    </g>
</svg>