<?xml version="1.0" encoding="UTF-8"?>
<svg width="1000px" height="1000px" viewBox="0 0 1000 1000" version="1.1" xmlns="http://www.w3.org/2000/svg" xmlns:xlink="http://www.w3.org/1999/xlink">
    <!-- Generator: Sketch 48.1 (47250) - http://www.bohemiancoding.com/sketch -->
    <title>Artboard Copy 32</title>
    <desc>Created with Sketch.</desc>
    <defs></defs>
    <g id="Page-1" stroke="none" stroke-width="1" fill="none" fill-rule="evenodd">
        <g id="Artboard-Copy-32" fill="#000000">
            <g id="Group">
                <path d="M444.444444,888.888889 L444.444444,555.555556 L111.111111,555.555556 L111.111111,888.888889 L444.444444,888.888889 Z M555.555556,888.888889 L888.888889,888.888889 L888.888889,555.555556 L555.555556,555.555556 L555.555556,888.888889 Z M444.444444,111.111111 L111.111111,111.111111 L111.111111,444.444444 L444.444444,444.444444 L444.444444,111.111111 Z M555.555556,111.111111 L555.555556,444.444444 L888.888889,444.444444 L888.888889,111.111111 L555.555556,111.111111 Z M0,888.888889 L0,111.111111 L0,0 L1000,0 L1000,111.111111 L1000,888.888889 L1000,1000 L0,1000 L0,888.888889 Z" id="Combined-Shape"></path>
            </g>
        </g>
    </g>
</svg>