<?xml version="1.0" encoding="UTF-8"?>
<svg width="1000px" height="999px" viewBox="0 0 1000 999" version="1.1" xmlns="http://www.w3.org/2000/svg" xmlns:xlink="http://www.w3.org/1999/xlink">
    <!-- Generator: Sketch 48.1 (47250) - http://www.bohemiancoding.com/sketch -->
    <title>Combined Shape</title>
    <desc>Created with Sketch.</desc>
    <defs></defs>
    <g id="Artboard-Copy-26" stroke="none" stroke-width="1" fill="none" fill-rule="evenodd">
        <g id="Border-1" transform="translate(0.000000, -1.000000)" fill="#000000">
            <path d="M90.9090909,909.090909 L909.090909,909.090909 L909.090909,90.9090909 L90.9090909,90.9090909 L90.9090909,909.090909 Z M90.9090909,1000 L-2.84217094e-14,1000 L3.28106305e-14,0 L90.9090909,0 L909.090909,0 L1000,0 L1000,1000 L909.090909,1000 L90.9090909,1000 Z M136.363636,545.454545 C111.259784,545.454545 90.9090909,525.103852 90.9090909,500 C90.9090909,474.896148 111.259784,454.545455 136.363636,454.545455 C161.467489,454.545455 181.818182,474.896148 181.818182,500 C181.818182,525.103852 161.467489,545.454545 136.363636,545.454545 Z M318.181818,545.454545 C293.077966,545.454545 272.727273,525.103852 272.727273,500 C272.727273,474.896148 293.077966,454.545455 318.181818,454.545455 C343.28567,454.545455 363.636364,474.896148 363.636364,500 C363.636364,525.103852 343.28567,545.454545 318.181818,545.454545 Z M500,363.636364 C474.896148,363.636364 454.545455,343.28567 454.545455,318.181818 C454.545455,293.077966 474.896148,272.727273 500,272.727273 C525.103852,272.727273 545.454545,293.077966 545.454545,318.181818 C545.454545,343.28567 525.103852,363.636364 500,363.636364 Z M500,545.454545 C474.896148,545.454545 454.545455,525.103852 454.545455,500 C454.545455,474.896148 474.896148,454.545455 500,454.545455 C525.103852,454.545455 545.454545,474.896148 545.454545,500 C545.454545,525.103852 525.103852,545.454545 500,545.454545 Z M500,727.272727 C474.896148,727.272727 454.545455,706.922034 454.545455,681.818182 C454.545455,656.71433 474.896148,636.363636 500,636.363636 C525.103852,636.363636 545.454545,656.71433 545.454545,681.818182 C545.454545,706.922034 525.103852,727.272727 500,727.272727 Z M500,909.090909 C474.896148,909.090909 454.545455,888.740216 454.545455,863.636364 C454.545455,838.532511 474.896148,818.181818 500,818.181818 C525.103852,818.181818 545.454545,838.532511 545.454545,863.636364 C545.454545,888.740216 525.103852,909.090909 500,909.090909 Z M500,181.818182 C474.896148,181.818182 454.545455,161.467489 454.545455,136.363636 C454.545455,111.259784 474.896148,90.9090909 500,90.9090909 C525.103852,90.9090909 545.454545,111.259784 545.454545,136.363636 C545.454545,161.467489 525.103852,181.818182 500,181.818182 Z M863.636364,545.454545 C838.532511,545.454545 818.181818,525.103852 818.181818,500 C818.181818,474.896148 838.532511,454.545455 863.636364,454.545455 C888.740216,454.545455 909.090909,474.896148 909.090909,500 C909.090909,525.103852 888.740216,545.454545 863.636364,545.454545 Z M681.818182,545.454545 C656.71433,545.454545 636.363636,525.103852 636.363636,500 C636.363636,474.896148 656.71433,454.545455 681.818182,454.545455 C706.922034,454.545455 727.272727,474.896148 727.272727,500 C727.272727,525.103852 706.922034,545.454545 681.818182,545.454545 Z" id="Combined-Shape"></path>
        </g>
    </g>
</svg>