<?xml version="1.0" encoding="utf-8"?>
<!-- Generated by IcoMoon.io -->
<!DOCTYPE svg PUBLIC "-//W3C//DTD SVG 1.1//EN" "http://www.w3.org/Graphics/SVG/1.1/DTD/svg11.dtd">
<svg version="1.1" xmlns="http://www.w3.org/2000/svg" xmlns:xlink="http://www.w3.org/1999/xlink" width="4096" height="4096" viewBox="0 0 4096 4096">
    <g id="icomoon-ignore">
    </g>
    <path fill="#000" d="M3850.24 303.924h-402.228v574.26c0 187.596-144.18 337.512-324.404 337.512h-102.4c-181.044 0-324.404-149.912-324.404-337.512v-574.26h-1232.896v574.26c0 187.596-146.636 337.512-327.68 337.512h-102.4c-181.044 0-330.136-149.912-330.136-337.512v-574.26h-457.932c-135.168 0-245.76 117.964-245.76 258.868v3278.44c0 140.084 110.592 254.772 245.76 254.772h3604.48c135.168 0 245.76-114.688 245.76-255.592v-3277.62c0-140.904-110.592-258.868-245.76-258.868zM3751.936 3564.34c0 99.124-81.1 179.404-180.224 180.224h-3047.424c-99.124 0-179.404-81.1-180.224-180.224v-1840.744c0-99.124 81.1-179.404 180.224-180.224h3047.424c99.124 0 179.404 81.1 180.224 180.224v1840.744z"></path>
    <path fill="#000" d="M1034.648 1072.332h102.4c101.58 0 183.5-87.656 183.5-194.152v-686.488c0-105.676-81.92-191.692-183.5-191.692h-102.4c-101.58 0-185.96 86.016-185.96 191.692v686.488c-0.82 105.676 83.56 194.152 185.96 194.152z"></path>
    <path fill="#000" d="M3021.208 1072.332h102.4c101.58 0 181.044-87.656 181.044-194.152v-686.488c0-105.676-79.464-191.692-181.044-191.692h-102.4c-101.58 0-181.044 86.016-181.044 191.692v686.488c0 105.676 78.644 194.152 181.044 194.152z"></path>
</svg>
