<?xml version="1.0" encoding="UTF-8"?>
<svg width="15px" height="15px" viewBox="0 0 15 15" version="1.1" xmlns="http://www.w3.org/2000/svg" xmlns:xlink="http://www.w3.org/1999/xlink">
    <!-- Generator: Sketch 49.1 (51147) - http://www.bohemiancoding.com/sketch -->
    <title>Reply</title>
    <desc>Created with Sketch.</desc>
    <defs></defs>
    <g id="Page-1" stroke="none" stroke-width="1" fill="none" fill-rule="evenodd">
        <g id="Reply" fill="#999999">
            <g id="DOTS" transform="translate(4.000000, 6.749987)">
                <ellipse id="Oval" cx="0.7" cy="0.75" rx="1" ry="1"></ellipse>
                <ellipse id="Oval-Copy" cx="3.5" cy="0.75" rx="1" ry="1"></ellipse>
                <ellipse id="Oval-Copy-2" cx="6.3" cy="0.75" rx="1" ry="1"></ellipse>
            </g>
            <path d="M0,7.47753363 C0,9.07662079 0.517928287,10.6531856 1.47410359,11.9369598 C1.2749004,12.3648845 1.01593625,12.7252422 0.677290837,12.9729881 C0.438247012,13.1531669 0.3187251,13.4684799 0.378486056,13.8063152 C0.438247012,14.1441505 0.657370518,14.3693741 0.956175299,14.4144188 C1.19521912,14.4594635 1.43426295,14.4819858 1.67330677,14.4819858 C2.41035857,14.4819858 3.0876494,14.301807 3.70517928,13.9639717 C4.86055777,14.6396423 6.15537849,15 7.50996016,15 C11.6533865,15 15,11.6441692 15,7.50005598 C15,3.35594277 11.6334661,0.000111962675 7.50996016,0.000111962675 C3.36653386,-0.0224103917 0,3.35594277 0,7.47753363 Z M1.01593625,7.47753363 C1.01593625,3.96404634 3.92430279,1.10370733 7.50996016,1.10370733 C11.0956175,1.10370733 14.0039841,3.96404634 14.0039841,7.47753363 C14.0039841,10.9910209 11.0956175,13.8513599 7.50996016,13.8513599 C6.23505976,13.8513599 5.01992032,13.4910023 3.94422311,12.8153316 C3.78486056,12.7252422 3.60557769,12.7252422 3.44621514,12.8153316 C2.98804781,13.1306446 2.4501992,13.3108234 1.83266932,13.3333458 C2.1314741,12.9729881 2.35059761,12.5450634 2.52988048,12.0270492 C2.58964143,11.824348 2.5498008,11.5991245 2.43027888,11.441468 C1.51394422,10.3153503 1.01593625,8.94148666 1.01593625,7.47753363 Z" fill-rule="nonzero"></path>
        </g>
    </g>
</svg>