<?xml version="1.0" encoding="UTF-8" standalone="no"?>
<svg width="15px" height="15px" viewBox="0 0 15 15" version="1.1" xmlns="http://www.w3.org/2000/svg" xmlns:xlink="http://www.w3.org/1999/xlink">
    <!-- Generator: Sketch 49.1 (51147) - http://www.bohemiancoding.com/sketch -->
    <title>Reply</title>
    <desc>Created with Sketch.</desc>
    <defs></defs>
    <g id="Page-1" stroke="none" stroke-width="1" fill="none" fill-rule="evenodd">
        <g id="Reply">
            <path d="M0,7.47753363 C0,3.35594277 3.36653386,-0.0224103917 7.50996016,0.000111962675 C11.6334661,0.000111962675 15,3.35594277 15,7.50005598 C15,11.6441692 11.6533865,15 7.50996016,15 C6.15537849,15 4.86055777,14.6396423 3.70517928,13.9639717 C3.0876494,14.301807 2.41035857,14.4819858 1.67330677,14.4819858 C1.43426295,14.4819858 1.19521912,14.4594635 0.956175299,14.4144188 C0.657370518,14.3693741 0.438247012,14.1441505 0.378486056,13.8063152 C0.3187251,13.4684799 0.438247012,13.1531669 0.677290837,12.9729881 C1.01593625,12.7252422 1.2749004,12.3648845 1.47410359,11.9369598 C0.517928287,10.6531856 0,9.07662079 0,7.47753363 Z M4.7,7.92857143 C5.08659932,7.92857143 5.4,7.59278499 5.4,7.17857143 C5.4,6.76435787 5.08659932,6.42857143 4.7,6.42857143 C4.31340068,6.42857143 4,6.76435787 4,7.17857143 C4,7.59278499 4.31340068,7.92857143 4.7,7.92857143 Z M7.5,7.92857143 C7.88659932,7.92857143 8.2,7.59278499 8.2,7.17857143 C8.2,6.76435787 7.88659932,6.42857143 7.5,6.42857143 C7.11340068,6.42857143 6.8,6.76435787 6.8,7.17857143 C6.8,7.59278499 7.11340068,7.92857143 7.5,7.92857143 Z M10.3,7.92857143 C10.6865993,7.92857143 11,7.59278499 11,7.17857143 C11,6.76435787 10.6865993,6.42857143 10.3,6.42857143 C9.91340068,6.42857143 9.6,6.76435787 9.6,7.17857143 C9.6,7.59278499 9.91340068,7.92857143 10.3,7.92857143 Z" id="Combined-Shape" fill="#7E66A9" fill-rule="nonzero"></path>
            <g id="DOTS" transform="translate(4.000000, 6.428571)"></g>
        </g>
    </g>
</svg>