<?xml version="1.0" encoding="utf-8"?>
<!-- Generated by IcoMoon.io -->
<!DOCTYPE svg PUBLIC "-//W3C//DTD SVG 1.1//EN" "http://www.w3.org/Graphics/SVG/1.1/DTD/svg11.dtd">
<svg version="1.1" xmlns="http://www.w3.org/2000/svg" xmlns:xlink="http://www.w3.org/1999/xlink" width="500" height="500" viewBox="0 0 500 500">
<path d="M254.2 289.9c-31.5 0-57.2-30.8-57.2-68.7s25.7-68.7 57.2-68.7c31.5 0 57.2 30.8 57.2 68.7s-25.6 68.7-57.2 68.7zM254.2 168.9c-22.5 0-40.8 23.5-40.8 52.3s18.3 52.3 40.8 52.3 40.8-23.5 40.8-52.3-18.3-52.3-40.8-52.3z"></path>
<path d="M151.8 362c-3.9 0-7.3-2.7-8.1-6.7-0.2-0.9-4.2-22.6 7.7-38.1 6.6-8.6 16.4-13.5 29.2-14.5 31.4-2.5 42.7-28 43.2-29.1 1.8-4.2 6.6-6.1 10.7-4.4 4.2 1.8 6.1 6.5 4.4 10.7-0.6 1.5-15.4 35.8-57 39.1-8.1 0.6-13.8 3.3-17.4 8.1-7.3 9.6-4.6 25-4.6 25.1 0.9 4.4-2.1 8.7-6.5 9.6-0.6 0.1-1.1 0.2-1.6 0.2z"></path>
<path d="M358 362c-0.5 0-1 0-1.5-0.1-4.5-0.8-7.4-5.1-6.5-9.6 0-0.1 2.8-15.6-4.7-25.2-3.7-4.8-9.4-7.4-17.4-8-41.7-3.3-56.4-37.7-57-39.1-1.7-4.2 0.2-9 4.4-10.7s9 0.2 10.7 4.4c0.5 1.2 11.8 26.6 43.2 29.1 12.8 1 22.6 5.9 29.2 14.5 11.8 15.5 7.9 37.2 7.7 38.1-0.8 3.8-4.2 6.6-8.1 6.6z"></path>
<path d="M398.7 262.4c-28.6 0-51.9-27.9-51.9-62.2s23.3-62.2 51.9-62.2c28.6 0 51.9 27.9 51.9 62.2s-23.3 62.2-51.9 62.2zM398.7 154.4c-19.6 0-35.5 20.5-35.5 45.8s15.9 45.8 35.5 45.8c19.6 0 35.5-20.5 35.5-45.8 0-25.2-15.9-45.8-35.5-45.8z"></path>
<path d="M491.2 326.7c-0.5 0-1 0-1.5-0.1-4.5-0.8-7.4-5.1-6.5-9.6 0-0.1 2.4-13.5-4-21.7-3.1-4-8-6.3-14.9-6.8-37.7-3-51.1-34.1-51.6-35.4-1.7-4.2 0.2-9 4.4-10.7s9 0.2 10.7 4.4c0.4 1 10.3 23.3 37.8 25.4 11.7 0.9 20.7 5.4 26.7 13.3 10.8 14.1 7.2 33.9 7 34.7-0.8 3.7-4.2 6.5-8.1 6.5z"></path>
<path d="M319.3 290.4c-3.9 0-7.4-2.8-8.1-6.8-0.7-4.5 2.3-8.7 6.8-9.4 42.6-7.1 52.6-26.5 52.7-26.7 2-4 6.8-5.8 10.9-3.9s5.9 6.6 4.1 10.7c-0.5 1.1-12.7 27.5-64.9 36.1-0.6 0-1 0-1.5 0z"></path>
<path d="M101.3 262.4c-28.6 0-51.9-27.9-51.9-62.2s23.3-62.2 51.9-62.2c28.6 0 51.9 27.9 51.9 62.2s-23.3 62.2-51.9 62.2zM101.3 154.4c-19.6 0-35.5 20.5-35.5 45.8s15.9 45.8 35.5 45.8 35.5-20.5 35.5-45.8c0-25.2-15.9-45.8-35.5-45.8z"></path>
<path d="M8.8 326.7c-3.9 0-7.3-2.7-8.1-6.7-0.2-0.8-3.8-20.6 7-34.7 6-7.9 15-12.4 26.7-13.3 27.5-2.2 37.4-24.5 37.8-25.4 1.8-4.2 6.6-6.1 10.7-4.3 4.2 1.8 6.1 6.5 4.4 10.7-0.5 1.3-13.9 32.5-51.6 35.4-6.9 0.5-11.8 2.8-14.9 6.9-6.3 8.2-4 21.6-3.9 21.7 0.9 4.4-2.1 8.7-6.5 9.6-0.6 0-1.1 0.1-1.6 0.1z"></path>
<path d="M180.7 290.4c-0.4 0-0.9 0-1.4-0.1-52.3-8.7-64.4-35-64.9-36.1-1.8-4.1 0.1-9 4.2-10.8s8.9 0 10.8 4.1c0.3 0.6 10.5 19.7 52.7 26.7 4.5 0.7 7.5 5 6.8 9.4-0.8 4-4.3 6.8-8.2 6.8z"></path>
</svg>
