<?xml version="1.0" encoding="UTF-8"?>
<svg width="1000px" height="1000px" viewBox="0 0 1000 1000" version="1.1" xmlns="http://www.w3.org/2000/svg" xmlns:xlink="http://www.w3.org/1999/xlink">
    <!-- Generator: Sketch 48.1 (47250) - http://www.bohemiancoding.com/sketch -->
    <title>Artboard Copy 24</title>
    <desc>Created with Sketch.</desc>
    <defs></defs>
    <g id="Page-1" stroke="none" stroke-width="1" fill="none" fill-rule="evenodd">
        <g id="Artboard-Copy-24" fill="#000000">
            <g id="Group-6" transform="translate(28.000000, 0.000000)">
                <path d="M141.600493,444.782866 L141.600493,382.8396 L203.543759,382.8396 L203.543759,444.782866 L141.600493,444.782866 Z M283.012437,226.319543 C283.012437,173.944487 288.400944,131.793271 299.178119,99.8646313 C309.955294,67.9359915 325.969734,43.3100124 347.22192,25.9859555 C368.474106,8.66189855 395.2152,0 427.446004,0 C451.216221,0 472.06521,4.78418815 489.993594,14.352708 C507.921979,23.9212278 522.727782,37.7198336 534.411448,55.7489394 C546.095115,73.7780452 555.260612,95.7349508 561.908215,121.620315 C568.555818,147.505679 571.87957,182.405073 571.87957,226.319543 C571.87957,278.291714 566.541423,320.24149 555.86497,352.170129 C545.188516,384.098769 529.224436,408.775108 507.972249,426.199886 C486.720063,443.624665 459.87825,452.336923 427.446004,452.336923 C384.740189,452.336923 351.200512,437.027521 326.825967,406.408257 C297.616801,369.544276 283.012437,309.515305 283.012437,226.319543 Z M338.912458,226.319543 C338.912458,299.040293 347.423276,347.436133 364.44517,371.508515 C381.467063,395.580896 402.467131,407.616907 427.446004,407.616907 C452.424876,407.616907 473.424944,395.530537 490.446838,371.357434 C507.468731,347.184331 515.97955,298.838851 515.97955,226.319543 C515.97955,153.397349 507.468731,104.951149 490.446838,80.9794892 C473.424944,57.007829 452.223437,45.0221787 426.841679,45.0221787 C401.862806,45.0221787 381.920296,55.5977525 367.013549,76.7492174 C348.279394,103.742515 338.912458,153.598792 338.912458,226.319543 Z M627.175266,226.319543 C627.175266,173.944487 632.563773,131.793271 643.340948,99.8646313 C654.118123,67.9359915 670.132563,43.3100124 691.384749,25.9859555 C712.636935,8.66189855 739.378029,0 771.608833,0 C795.37905,0 816.228039,4.78418815 834.156423,14.352708 C852.084808,23.9212278 866.890611,37.7198336 878.574278,55.7489394 C890.257944,73.7780452 899.423441,95.7349508 906.071044,121.620315 C912.718648,147.505679 916.042399,182.405073 916.042399,226.319543 C916.042399,278.291714 910.704253,320.24149 900.027799,352.170129 C889.351345,384.098769 873.387265,408.775108 852.135079,426.199886 C830.882892,443.624665 804.041079,452.336923 771.608833,452.336923 C728.903018,452.336923 695.363341,437.027521 670.988796,406.408257 C641.77963,369.544276 627.175266,309.515305 627.175266,226.319543 Z M683.075287,226.319543 C683.075287,299.040293 691.586106,347.436133 708.607999,371.508515 C725.629892,395.580896 746.62996,407.616907 771.608833,407.616907 C796.587706,407.616907 817.587774,395.530537 834.609667,371.357434 C851.63156,347.184331 860.142379,298.838851 860.142379,226.319543 C860.142379,153.397349 851.63156,104.951149 834.609667,80.9794892 C817.587774,57.007829 796.386266,45.0221787 771.004508,45.0221787 C746.025635,45.0221787 726.083125,55.5977525 711.176378,76.7492174 C692.442224,103.742515 683.075287,153.598792 683.075287,226.319543 Z M659.175266,772.319543 C659.175266,719.944487 664.563773,677.793271 675.340948,645.864631 C686.118123,613.935991 702.132563,589.310012 723.384749,571.985955 C744.636935,554.661899 771.378029,546 803.608833,546 C827.37905,546 848.228039,550.784188 866.156423,560.352708 C884.084808,569.921228 898.890611,583.719834 910.574278,601.748939 C922.257944,619.778045 931.423441,641.734951 938.071044,667.620315 C944.718648,693.505679 948.042399,728.405073 948.042399,772.319543 C948.042399,824.291714 942.704253,866.24149 932.027799,898.170129 C921.351345,930.098769 905.387265,954.775108 884.135079,972.199886 C862.882892,989.624665 836.041079,998.336923 803.608833,998.336923 C760.903018,998.336923 727.363341,983.027521 702.988796,952.408257 C673.77963,915.544276 659.175266,855.515305 659.175266,772.319543 Z M715.075287,772.319543 C715.075287,845.040293 723.586106,893.436133 740.607999,917.508515 C757.629892,941.580896 778.62996,953.616907 803.608833,953.616907 C828.587706,953.616907 849.587774,941.530537 866.609667,917.357434 C883.63156,893.184331 892.142379,844.838851 892.142379,772.319543 C892.142379,699.397349 883.63156,650.951149 866.609667,626.979489 C849.587774,603.007829 828.386266,591.022179 803.004508,591.022179 C778.025635,591.022179 758.083125,601.597753 743.176378,622.749217 C724.442224,649.742515 715.075287,699.598792 715.075287,772.319543 Z M410.283186,750.484064 L410.283186,691.68052 L507.439235,779.801056 L410.283186,867.921593 L410.283186,811.129241 L0,811.129241 L0,750.484064 L410.283186,750.484064 Z M512.897494,992.445943 L512.897494,930.502677 L574.84076,930.502677 L574.84076,992.445943 L512.897494,992.445943 Z" id=".00"></path>
            </g>
        </g>
    </g>
</svg>