<?xml version="1.0" encoding="UTF-8"?>
<svg width="500px" height="500px" viewBox="0 0 500 500" version="1.1" xmlns="http://www.w3.org/2000/svg" xmlns:xlink="http://www.w3.org/1999/xlink">
    <!-- Generator: Sketch 46.2 (44496) - http://www.bohemiancoding.com/sketch -->
    <title>Icon - Link</title>
    <desc>Created with Sketch.</desc>
    <defs></defs>
    <g id="Symbols" stroke="none" stroke-width="1" fill="none" fill-rule="evenodd">
        <g id="Icon---Link" fill-rule="nonzero" fill="#2E7AC1">
            <g id="Icon">
                <path d="M22.3488168,45.8138171 C9.93280746,45.8138171 0.438212117,55.3278689 0.438212117,67.7693207 L0.438212117,477.605386 C0.438212117,490.046839 9.93280746,499.56089 22.3488168,499.56089 L431.346772,499.56089 L431.346772,499.56089 C443.762781,499.56089 453.257377,490.046839 453.257377,477.605386 L453.257377,243.413349 L409.436167,243.413349 L409.436167,455.649883 L44.2594216,455.649883 L44.2594216,89.7248243 L256.061934,89.7248243 L256.061934,45.8138171 C256.061934,46.5456675 22.3488168,46.5456675 22.3488168,45.8138171 Z" id="Shape"></path>
                <polygon id="Shape" points="253.870874 276.346604 455.448437 75.0878222 455.448437 156.323185 499.269647 156.323185 499.269647 0.439110092 342.973999 0.439110092 342.973999 44.3501171 424.043237 44.3501171 223.196027 245.608899"></polygon>
            </g>
        </g>
    </g>
</svg>