<?xml version="1.0" encoding="UTF-8"?>
<svg width="978px" height="981px" viewBox="0 0 978 981" version="1.1" xmlns="http://www.w3.org/2000/svg" xmlns:xlink="http://www.w3.org/1999/xlink">
    <!-- Generator: Sketch 48.1 (47250) - http://www.bohemiancoding.com/sketch -->
    <title>Shape</title>
    <desc>Created with Sketch.</desc>
    <defs></defs>
    <g id="Artboard-Copy-3" stroke="none" stroke-width="1" fill="none" fill-rule="evenodd" transform="translate(-11.000000, -16.000000)">
        <g id="Color-Fill" transform="translate(11.000000, 16.000000)" fill="#000000" fill-rule="nonzero">
            <path d="M370.346154,64.7692308 L275.923077,0.730769231 L232.653846,64.3846154 L327.076923,128.423077 L0.153846154,610.346154 L546.692308,980.346154 L915.923077,434.769231 L370.346154,64.7692308 Z M390.730769,171.5 L809,455.153846 L719.769231,588.038462 L110.538462,591.5 L107.846154,589.576923 L390.730769,171.5 Z M830.346154,777.461538 C830.346154,736.692308 904,647.269231 904,647.269231 C904,647.269231 977.653846,736.692308 977.653846,777.461538 C977.653846,818.192539 944.634846,851.211538 903.903846,851.211538 C863.172846,851.211538 830.153846,818.192539 830.153846,777.461538 L830.346154,777.461538 Z" id="Shape"></path>
        </g>
    </g>
</svg>