<?xml version="1.0" encoding="UTF-8"?>
<svg width="997px" height="999px" viewBox="0 0 997 999" version="1.1" xmlns="http://www.w3.org/2000/svg" xmlns:xlink="http://www.w3.org/1999/xlink">
    <!-- Generator: Sketch 48.2 (47327) - http://www.bohemiancoding.com/sketch -->
    <title>Shape</title>
    <desc>Created with Sketch.</desc>
    <defs></defs>
    <g id="Artboard-2" stroke="none" stroke-width="1" fill="none" fill-rule="evenodd" transform="translate(-2.000000, 0.000000)">
        <g id="console-filtericon" fill="#000000">
            <g id="Layer_1">
                <g id="aswHKh.tif">
                    <g id="Group">
                        <path d="M983.579653,11.6393474 C991.504523,18.7277499 996.786142,28.038433 998.45207,40.5457775 C998.4524,40.5482589 998.452731,40.5507403 998.453061,40.5532217 C1000.64615,56.7345564 993.867514,68.5209608 982.902075,79.5082868 L648.954615,413.32323 C639.185406,423.111939 635.197974,432.700878 635.197974,446.484978 C635.596717,614.291412 635.596717,782.097847 635.397345,950.104051 C635.397345,977.272712 623.833791,992.055659 598.712968,997.848977 C584.15884,1001.04529 571.399056,997.049899 561.031732,986.661881 C499.425902,925.332625 438.218815,863.603829 376.812357,802.074803 C367.043148,792.286095 365.049432,780.299921 365.049432,766.91536 C365.248803,658.640256 365.049432,550.365151 365.448175,442.090047 C365.448175,431.302491 362.058858,423.711247 354.482736,416.120004 C242.236515,304.049278 130.189666,191.579013 18.1428172,79.3085173 C-1.99371618,59.1317912 -3.58868912,32.9619782 14.9528713,13.9838695 C20.9340198,7.9907826 30.3044859,0 37.0831209,0 L964.161143,0 C969.357764,0 976.876914,4.56124393 983.579653,11.6393474 Z" id="Shape"></path>
                    </g>
                </g>
            </g>
        </g>
    </g>
</svg>