<?xml version="1.0" encoding="utf-8"?>
<!-- Generated by IcoMoon.io -->
<!DOCTYPE svg PUBLIC "-//W3C//DTD SVG 1.1//EN" "http://www.w3.org/Graphics/SVG/1.1/DTD/svg11.dtd">
<svg version="1.1" xmlns="http://www.w3.org/2000/svg" xmlns:xlink="http://www.w3.org/1999/xlink" width="32" height="32" viewBox="0 0 32 32">
<path d="M16 0c-4.499 0-7.424 1.933-8.749 4.25s-1.248 4.749-1.248 5.747h4c0-0.998 0.077-2.573 0.749-3.75s1.747-2.253 5.248-2.253c2.669 0 4.147 0.666 4.941 1.376s1.062 1.568 1.062 2.624c0 3.334-1.312 4.25-3.315 6.003s-4.685 4.333-4.685 8.998v1.005h4v-0.998c0-3.334 1.312-4.25 3.315-6.003s4.685-4.333 4.685-8.998c0-1.946-0.73-4.083-2.438-5.626-1.715-1.536-4.23-2.374-7.565-2.374zM14.003 28v4h4v-4h-4z"></path>
</svg>
