<?xml version="1.0" encoding="UTF-8"?>
<svg width="500px" height="500px" viewBox="0 0 500 500" version="1.1" xmlns="http://www.w3.org/2000/svg" xmlns:xlink="http://www.w3.org/1999/xlink">
    <!-- Generator: Sketch 49.3 (51167) - http://www.bohemiancoding.com/sketch -->
    <title>Icon - Audit Trail</title>
    <desc>Created with Sketch.</desc>
    <defs></defs>
    <g id="Icon---Audit-Trail" stroke="none" stroke-width="1" fill="none" fill-rule="evenodd">
        <g id="Audit-Trail" transform="translate(-41.242859, -37.000000)" fill="#000000" fill-rule="nonzero">
            <polygon id="Shape" transform="translate(275.524555, 296.331274) rotate(-360.000000) translate(-275.524555, -296.331274) " points="352.331043 177.136787 300.933947 177.136787 300.933947 275.898108 198.718067 379.182526 235.061303 415.525761 352.135077 298.451988"></polygon>
            <path d="M526.602838,222.691042 C492.224873,135.813445 406.782057,81.8117498 327.180674,81.8694285 C284.492356,81.9003601 248.329524,88.3271345 211.278983,109.899338 C173.663808,132.982409 164.375256,139.640354 132.288005,180.860038 L125.769003,156.524534 L77.0068551,170.011001 L98.3508207,272.274754 L132.427589,287.535313 L228.29543,247.981486 L201.595581,198.944496 L179.565427,209.311441 C187.566178,187.592172 219.935159,164.130565 228.576869,159.253687 C258.14423,142.057056 286.168526,133.782176 318.611507,133.782176 C386.495575,133.782176 447.494349,171.766079 476.49043,239.202746 C479.891371,247.456155 481.762695,253.061681 483.932327,261.835955 C488.484149,277.490622 490.428933,289.021755 490.133828,305.928327 C488.598425,393.891514 420.255634,476.002614 320.440576,476.002614 C251.766974,476.002614 173.186954,430.263817 152.329385,348.457411 L104.382894,366.926605 C130.874229,460.320338 216.855214,528.967249 318.619166,528.967249 C441.422609,528.967249 541.777008,428.176054 541.777008,305.376442 C541.757859,276.487597 536.625654,248.020006 526.602838,222.691042 Z" id="Shape" transform="translate(309.391932, 305.418316) rotate(-27.000000) translate(-309.391932, -305.418316) "></path>
        </g>
    </g>
</svg>