<?xml version="1.0" encoding="utf-8"?>
<!-- Generated by IcoMoon.io -->
<!DOCTYPE svg PUBLIC "-//W3C//DTD SVG 1.1//EN" "http://www.w3.org/Graphics/SVG/1.1/DTD/svg11.dtd">
<svg version="1.1" xmlns="http://www.w3.org/2000/svg" xmlns:xlink="http://www.w3.org/1999/xlink" width="500" height="500" viewBox="0 0 500 500">
<path d="M439.8 189.8c-29.1 0-53.4 20.7-59 48.2h-46.4c-5.9-40.8-41-72.3-83.4-72.3s-77.5 31.5-83.4 72.3h-48.4c-5.6-27.5-29.9-48.2-59-48.2-33.2 0-60.2 27-60.2 60.2s27 60.2 60.2 60.2c29.1 0 53.4-20.7 59-48.2h48.4c5.9 40.8 41 72.3 83.4 72.3s77.5-31.5 83.4-72.3h46.4c5.6 27.5 29.9 48.2 59 48.2 33.2 0 60.2-27 60.2-60.2s-27-60.2-60.2-60.2zM60.2 286.1c-19.9 0-36.1-16.2-36.1-36.1s16.2-36.1 36.1-36.1 36.1 16.2 36.1 36.1-16.1 36.1-36.1 36.1zM251 310.2c-33.2 0-60.2-27-60.2-60.2s27-60.2 60.2-60.2 60.2 27 60.2 60.2-27 60.2-60.2 60.2zM439.8 286.1c-19.9 0-36.2-16.2-36.2-36.1s16.2-36.1 36.2-36.1c19.9 0 36.1 16.2 36.1 36.1s-16.2 36.1-36.1 36.1z"></path>
</svg>
