<?xml version="1.0" encoding="UTF-8"?>
<svg width="1000px" height="1000px" viewBox="0 0 1000 1000" version="1.1" xmlns="http://www.w3.org/2000/svg" xmlns:xlink="http://www.w3.org/1999/xlink">
    <!-- Generator: Sketch 48.1 (47250) - http://www.bohemiancoding.com/sketch -->
    <title>Artboard Copy 23</title>
    <desc>Created with Sketch.</desc>
    <defs></defs>
    <g id="Page-1" stroke="none" stroke-width="1" fill="none" fill-rule="evenodd">
        <g id="Artboard-Copy-23" fill="#000000">
            <g id="Group-6">
                <path d="M531.604672,447.139303 L531.604672,384.889517 L593.854458,384.889517 L593.854458,447.139303 L531.604672,447.139303 Z M673.716379,227.594935 C673.716379,174.960707 679.13155,132.60091 689.962055,100.514274 C700.79256,68.4276387 716.886246,43.6798005 738.243596,26.2700171 C759.600947,8.86023374 786.474366,0.155472637 818.864661,0.155472637 C842.752503,0.155472637 863.704661,4.96333488 881.721762,14.5792036 C899.738864,24.1950723 914.617932,38.0619592 926.359414,56.1802802 C938.100896,74.2986013 947.311748,96.3641585 953.992246,122.377614 C960.672744,148.391069 964.012943,183.463159 964.012943,227.594935 C964.012943,279.824286 958.648381,321.981646 947.919096,354.068282 C937.189811,386.154917 921.146734,410.953365 899.789383,428.464368 C878.432033,445.975371 851.457395,454.730741 818.864661,454.730741 C775.947521,454.730741 742.241876,439.345582 717.746716,408.574802 C688.393011,371.528402 673.716379,311.202383 673.716379,227.594935 Z M729.893015,227.594935 C729.893015,300.675538 738.445949,349.31086 755.552074,373.502361 C772.658198,397.693863 793.762183,409.789432 818.864661,409.789432 C843.967139,409.789432 865.071124,397.643253 882.177249,373.350532 C899.283373,349.057812 907.836307,300.473098 907.836307,227.594935 C907.836307,154.311894 899.283373,105.625963 882.177249,81.535681 C865.071124,57.4453993 843.764703,45.4004392 818.257346,45.4004392 C793.154868,45.4004392 773.113674,56.0283452 758.133162,77.2844761 C739.306304,104.411348 729.893015,154.514333 729.893015,227.594935 Z M353.716379,770.594935 C353.716379,717.960707 359.13155,675.60091 369.962055,643.514274 C380.79256,611.427639 396.886246,586.6798 418.243596,569.270017 C439.600947,551.860234 466.474366,543.155473 498.864661,543.155473 C522.752503,543.155473 543.704661,547.963335 561.721762,557.579204 C579.738864,567.195072 594.617932,581.061959 606.359414,599.18028 C618.100896,617.298601 627.311748,639.364159 633.992246,665.377614 C640.672744,691.391069 644.012943,726.463159 644.012943,770.594935 C644.012943,822.824286 638.648381,864.981646 627.919096,897.068282 C617.189811,929.154917 601.146734,953.953365 579.789383,971.464368 C558.432033,988.975371 531.457395,997.730741 498.864661,997.730741 C455.947521,997.730741 422.241876,982.345582 397.746716,951.574802 C368.393011,914.528402 353.716379,854.202383 353.716379,770.594935 Z M409.893015,770.594935 C409.893015,843.675538 418.445949,892.31086 435.552074,916.502361 C452.658198,940.693863 473.762183,952.789432 498.864661,952.789432 C523.967139,952.789432 545.071124,940.643253 562.177249,916.350532 C579.283373,892.057812 587.836307,843.473098 587.836307,770.594935 C587.836307,697.311894 579.283373,648.625963 562.177249,624.535681 C545.071124,600.445399 523.764703,588.400439 498.257346,588.400439 C473.154868,588.400439 453.113674,599.028345 438.133162,620.284476 C419.306304,647.411348 409.893015,697.514333 409.893015,770.594935 Z M696.716379,771.594935 C696.716379,718.960707 702.13155,676.60091 712.962055,644.514274 C723.79256,612.427639 739.886246,587.6798 761.243596,570.270017 C782.600947,552.860234 809.474366,544.155473 841.864661,544.155473 C865.752503,544.155473 886.704661,548.963335 904.721762,558.579204 C922.738864,568.195072 937.617932,582.061959 949.359414,600.18028 C961.100896,618.298601 970.311748,640.364159 976.992246,666.377614 C983.672744,692.391069 987.012943,727.463159 987.012943,771.594935 C987.012943,823.824286 981.648381,865.981646 970.919096,898.068282 C960.189811,930.154917 944.146734,954.953365 922.789383,972.464368 C901.432033,989.975371 874.457395,998.730741 841.864661,998.730741 C798.947521,998.730741 765.241876,983.345582 740.746716,952.574802 C711.393011,915.528402 696.716379,855.202383 696.716379,771.594935 Z M752.893015,771.594935 C752.893015,844.675538 761.445949,893.31086 778.552074,917.502361 C795.658198,941.693863 816.762183,953.789432 841.864661,953.789432 C866.967139,953.789432 888.071124,941.643253 905.177249,917.350532 C922.283373,893.057812 930.836307,844.473098 930.836307,771.594935 C930.836307,698.311894 922.283373,649.625963 905.177249,625.535681 C888.071124,601.445399 866.764703,589.400439 841.257346,589.400439 C816.154868,589.400439 796.113674,600.028345 781.133162,621.284476 C762.306304,648.411348 752.893015,698.514333 752.893015,771.594935 Z M97.6368159,79.60199 L509.950249,79.60199 L509.950249,140.547264 L97.6368159,140.547264 L97.6368159,197.620647 L0,109.064055 L97.6368159,20.5074627 L97.6368159,79.60199 Z M220.659398,991.293532 L220.659398,929.043746 L282.909185,929.043746 L282.909185,991.293532 L220.659398,991.293532 Z" id=".0"></path>
            </g>
        </g>
    </g>
</svg>