<svg xmlns="http://www.w3.org/2000/svg" width="500" height="501" viewBox="0 0 500 501"><title>  Shape</title><g fill="none"><path d="M250 0.5C112.1 0.5 0 112.6 0 250.5 0 388.4 112.1 500.5 250 500.5 387.9 500.5 500 388.4 500 250.5 500 112.6 387.9 0.5 250 0.5ZM250 33.8C369.9 33.8 466.7 130.6 466.7 250.5 466.7 370.4 369.9 467.2 250 467.2 130.1 467.2 33.3 370.4 33.3 250.5 33.3 130.6 130.1 33.8 250 33.8ZM288.9 78.3C273.5 78.3 261.1 90.7 261.1 106.1 261.1 121.4 273.5 133.8 288.9 133.8 304.2 133.8 316.7 121.4 316.7 106.1 316.7 90.7 304.2 78.3 288.9 78.3ZM255 139.4C235 140.3 213.7 150.2 195.8 163.9L193.9 184.7C210.8 178.1 228.1 178.2 233.3 193.9 246 232.2 202.8 299.2 191 334.4 158.9 429.6 235.9 440.6 290.8 401.4L292.9 378.8C263 388.2 241.6 376.7 258.9 326.9 267.2 302.9 336.8 181.9 288.7 148.6 278.6 141.6 267.1 138.8 255 139.4L255 139.4Z" fill="#464646"/></g></svg>