<?xml version="1.0" encoding="utf-8"?>
<!-- Generator: Adobe Illustrator 21.0.0, SVG Export Plug-In . SVG Version: 6.00 Build 0)  -->
<svg version="1.1" id="Layer_1" xmlns="http://www.w3.org/2000/svg" xmlns:xlink="http://www.w3.org/1999/xlink" x="0px" y="0px"
	 viewBox="0 0 500 500" style="enable-background:new 0 0 500 500;" xml:space="preserve">
<g>
	<path d="M385,184.4v-44.1C385,66.8,324.1,8,252.7,8c-75.6,0-132.3,58.8-132.3,132.3v44.1h48.3v-44.1c0-46.2,37.8-84,84-84
		s84,37.8,84,84v44.1H385z"/>
	<path d="M408.1,197H91c-12.6,0-23.1,12.6-23.1,25.2v245.7c0,14.7,10.5,25.2,23.1,25.2h319.2c12.6,0,23.1-12.6,23.1-25.2V222.2
		C435.4,209.6,424.9,199.1,408.1,197z"/>
</g>
</svg>
