<?xml version="1.0" encoding="UTF-8"?>
<svg width="847px" height="1000px" viewBox="0 0 847 1000" version="1.1" xmlns="http://www.w3.org/2000/svg" xmlns:xlink="http://www.w3.org/1999/xlink">
    <!-- Generator: Sketch 48.1 (47250) - http://www.bohemiancoding.com/sketch -->
    <title>Combined Shape</title>
    <desc>Created with Sketch.</desc>
    <defs></defs>
    <g id="Artboard-Copy-20" stroke="none" stroke-width="1" fill="none" fill-rule="evenodd" transform="translate(-77.000000, 0.000000)">
        <path d="M538.538462,769.230769 L538.538462,1000 L461.615385,1000 L461.615385,769.230769 L77,769.230769 L77,692.307692 L923.153846,692.307692 L923.153846,769.230769 L538.538462,769.230769 Z M461.615385,230.769231 L461.615385,0 L538.538462,0 L538.538462,230.769231 L923.153846,230.769231 L923.153846,307.692308 L77,307.692308 L77,230.769231 L461.615385,230.769231 Z M230.846154,461.538462 L769.307692,461.538462 L769.307692,384.615385 L923.153846,500 L769.307692,615.384615 L769.307692,538.461538 L230.846154,538.461538 L230.846154,615.384615 L77,500 L230.846154,384.615385 L230.846154,461.538462 Z" id="Combined-Shape" fill="#000000"></path>
    </g>
</svg>