<?xml version="1.0" encoding="utf-8"?>
<!-- Generated by IcoMoon.io -->
<!DOCTYPE svg PUBLIC "-//W3C//DTD SVG 1.1//EN" "http://www.w3.org/Graphics/SVG/1.1/DTD/svg11.dtd">
<svg version="1.1" xmlns="http://www.w3.org/2000/svg" xmlns:xlink="http://www.w3.org/1999/xlink" width="500" height="500" viewBox="0 0 500 500">
<path d="M455.9 396h-411.8c-24.3 0-44.1-19.8-44.1-44.2v-273.6c0-24.3 19.8-44.1 44.1-44.1h411.8c24.3 0 44.1 19.8 44.1 44.1v273.7c0 24.3-19.8 44.1-44.1 44.1zM44.1 63.5c-8.1 0-14.7 6.6-14.7 14.7v273.7c0 8.1 6.6 14.7 14.7 14.7h411.8c8.1 0 14.7-6.6 14.7-14.7v-273.7c0-8.1-6.6-14.7-14.7-14.7h-411.8z"></path>
<path d="M413.1 230.7h-326.2c-8.1 0-14.7-6.6-14.7-14.7s6.6-14.7 14.7-14.7h326.3c8.1 0 14.7 6.6 14.7 14.7-0.1 8.1-6.6 14.7-14.8 14.7z"></path>
<path d="M387.2 157.1h-274.4c-8.1 0-14.7-6.6-14.7-14.7s6.6-14.7 14.7-14.7h274.4c8.1 0 14.7 6.6 14.7 14.7s-6.6 14.7-14.7 14.7z"></path>
<path d="M353.2 304.2h-206.4c-8.1 0-14.7-6.6-14.7-14.7s6.6-14.7 14.7-14.7h206.3c8.1 0 14.7 6.6 14.7 14.7s-6.5 14.7-14.6 14.7z"></path>
<path d="M220.6 465.9c-8.1 0-14.7-6.6-14.7-14.7v-54.2c0-8.1 6.6-14.7 14.7-14.7s14.7 6.6 14.7 14.7v54.2c0 8.2-6.6 14.7-14.7 14.7z"></path>
<path d="M279.4 465.9c-8.1 0-14.7-6.6-14.7-14.7v-54.2c0-8.1 6.6-14.7 14.7-14.7s14.7 6.6 14.7 14.7v54.2c0 8.2-6.6 14.7-14.7 14.7z"></path>
<path d="M323.9 465.9h-147.8c-8.1 0-14.7-6.6-14.7-14.7s6.6-14.7 14.7-14.7h147.8c8.1 0 14.7 6.6 14.7 14.7s-6.6 14.7-14.7 14.7z"></path>
</svg>
