<?xml version="1.0" encoding="UTF-8"?>
<svg width="1000px" height="1000px" viewBox="0 0 1000 1000" version="1.1" xmlns="http://www.w3.org/2000/svg" xmlns:xlink="http://www.w3.org/1999/xlink">
    <!-- Generator: Sketch 48.1 (47250) - http://www.bohemiancoding.com/sketch -->
    <title>Shape Copy</title>
    <desc>Created with Sketch.</desc>
    <defs></defs>
    <g id="Artboard-Copy" stroke="none" stroke-width="1" fill="none" fill-rule="evenodd">
        <g id="Paste" fill="#000000">
            <path d="M799.992616,312.499279 L799.992616,156.261178 C799.992616,139.069333 784.989908,125.004327 766.664205,125.004327 L699.995077,125.004327 L699.995077,187.50649 L733.335795,187.50649 L733.335795,312.499279 L533.340718,312.499279 L333.333333,500.005769 L333.333333,750.002885 L66.6568208,750.002885 L66.6568208,187.50649 L100.009846,187.50649 L100.009846,125.004327 L33.3284104,125.004327 C14.9904002,125.004327 0,139.069333 0,156.261178 L0,781.259735 C0,798.440042 14.9904002,812.516586 33.3284104,812.516586 L333.333333,812.505048 L333.333333,1000 L1000,1000 L1000,312.499279 L799.992616,312.499279 Z M533.340718,400.881515 L533.340718,500.005769 L427.595628,500.005769 L533.340718,400.881515 Z M935.340718,942.496394 L402,942.496394 L402,567.494952 L602.007384,567.494952 L602.007384,380 L935.340718,380 L935.340718,942.496394 Z M666.666667,125.004327 L666.666667,250.008654 L133.338256,250.008654 L133.338256,125.004327 L266.664205,125.027403 L266.664205,62.5137016 C266.664205,28.1300119 296.66962,0.0115381509 333.333333,0.0115381509 L466.67159,0 C503.34761,0 533.340718,28.1300119 533.340718,62.5021634 L533.340718,125.004327 L666.666667,125.004327 Z M333.333333,125.004327 C333.333333,119.350633 333.087186,62.8598461 333.468715,62.5021634 L466.573131,62.5021634 C466.942352,62.8483079 466.696204,119.350633 466.696204,125.004327 L333.333333,125.004327 Z" id="Shape-Copy"></path>
        </g>
    </g>
</svg>