<?xml version="1.0" encoding="UTF-8"?>
<svg width="1000px" height="981px" viewBox="0 0 1000 981" version="1.1" xmlns="http://www.w3.org/2000/svg" xmlns:xlink="http://www.w3.org/1999/xlink">
    <!-- Generator: Sketch 48.1 (47250) - http://www.bohemiancoding.com/sketch -->
    <title>%</title>
    <desc>Created with Sketch.</desc>
    <defs></defs>
    <g id="Artboard-Copy-21" stroke="none" stroke-width="1" fill="none" fill-rule="evenodd" transform="translate(0.000000, -10.000000)">
        <path d="M0,249.213198 C0,182.800006 16.7088008,126.32849 50.1269036,79.7969543 C83.5450063,33.2654188 131.979378,10 195.431472,10 C253.807398,10 302.136018,30.833125 340.418782,72.5 C378.701545,114.166875 397.84264,175.397227 397.84264,256.192893 C397.84264,334.87349 378.490041,395.469331 339.784264,437.982234 C301.078487,480.495136 253.384378,501.751269 196.700508,501.751269 C140.439651,501.751269 93.5915577,480.812392 56.1548223,438.93401 C18.7180869,397.055628 0,333.81599 0,249.213198 Z M198.604061,88.680203 C170.262126,88.680203 146.679451,100.947424 127.85533,125.482234 C109.031209,150.017043 99.6192893,195.067354 99.6192893,260.634518 C99.6192893,320.279486 109.136961,362.262992 128.172589,386.586294 C147.208217,410.909597 170.68514,423.071066 198.604061,423.071066 C227.36901,423.071066 251.163188,410.803845 269.98731,386.269036 C288.811431,361.734226 298.22335,316.895419 298.22335,251.751269 C298.22335,191.683287 288.705679,149.488277 269.670051,125.164975 C250.634423,100.841672 226.945996,88.680203 198.604061,88.680203 Z M199.238579,990.329949 L708.121827,10 L800.761421,10 L293.781726,990.329949 L199.238579,990.329949 Z M601.522843,737.791878 C601.522843,670.955673 618.231643,614.378404 651.649746,568.058376 C685.067849,521.738347 733.713725,498.57868 797.588832,498.57868 C855.964759,498.57868 904.293379,519.411805 942.576142,561.07868 C980.858905,602.745555 1000,663.975907 1000,744.771574 C1000,823.45217 980.647402,884.048011 941.941624,926.560914 C903.235847,969.073817 855.330235,990.329949 798.22335,990.329949 C741.962494,990.329949 695.1144,969.28532 657.677665,927.195431 C620.24093,885.105543 601.522843,821.971656 601.522843,737.791878 Z M800.761421,577.258883 C771.996472,577.258883 748.202294,589.526104 729.378173,614.060914 C710.554051,638.595723 701.142132,683.646034 701.142132,749.213198 C701.142132,808.435152 710.659803,850.312906 729.695431,874.847716 C748.73106,899.382525 772.207982,911.649746 800.126904,911.649746 C829.314867,911.649746 853.320549,899.382525 872.14467,874.847716 C890.968791,850.312906 900.380711,805.474099 900.380711,740.329949 C900.380711,680.261967 890.863039,638.066957 871.827411,613.743655 C852.791783,589.420352 829.103357,577.258883 800.761421,577.258883 Z" id="%" fill="#000000"></path>
    </g>
</svg>