<?xml version="1.0" encoding="UTF-8"?>
<svg width="15px" height="14px" viewBox="0 0 15 14" version="1.1" xmlns="http://www.w3.org/2000/svg" xmlns:xlink="http://www.w3.org/1999/xlink">
    <!-- Generator: Sketch 46.2 (44496) - http://www.bohemiancoding.com/sketch -->
    <title>Reply</title>
    <desc>Created with Sketch.</desc>
    <defs></defs>
    <g id="Page-1" stroke="none" stroke-width="1" fill="none" fill-rule="evenodd">
        <g id="Edit-Content" transform="translate(-977.000000, -293.000000)" fill-rule="nonzero" fill="#999999">
            <g id="Comments-v2" transform="translate(21.000000, 183.000000)">
                <g id="1-copy" transform="translate(20.000000, 59.000000)">
                    <g id="Actions" transform="translate(936.000000, 51.000000)">
                        <path d="M10.7569721,6.97903139 C10.7569721,7.27332348 10.5378486,7.50455299 10.2589641,7.50455299 L5.9561753,7.50455299 L7.21115538,8.82886743 C7.41035857,9.03907607 7.41035857,9.37540989 7.21115538,9.56459767 C7.11155378,9.66970199 6.99203187,9.71174372 6.85258964,9.71174372 C6.71314741,9.71174372 6.5936255,9.66970199 6.4940239,9.56459767 L4.40239044,7.35740694 C4.38247012,7.33638608 4.3625498,7.31536521 4.34262948,7.27332348 C4.34262948,7.27332348 4.34262948,7.25230262 4.32270916,7.25230262 C4.30278884,7.23128175 4.30278884,7.21026089 4.28286853,7.18924003 C4.28286853,7.16821916 4.28286853,7.16821916 4.26294821,7.1471983 C4.26294821,7.12617743 4.24302789,7.10515657 4.24302789,7.08413571 C4.24302789,7.04209398 4.24302789,7.02107311 4.24302789,6.97903139 C4.24302789,6.93698966 4.24302789,6.91596879 4.24302789,6.87392706 C4.24302789,6.8529062 4.26294821,6.83188534 4.26294821,6.81086447 C4.26294821,6.78984361 4.26294821,6.78984361 4.28286853,6.76882274 C4.28286853,6.74780188 4.30278884,6.72678102 4.32270916,6.70576015 C4.32270916,6.70576015 4.32270916,6.68473929 4.34262948,6.68473929 C4.3625498,6.66371842 4.38247012,6.6216767 4.40239044,6.60065583 L6.51394422,4.37244423 C6.71314741,4.16223559 7.03187251,4.16223559 7.21115538,4.37244423 C7.41035857,4.58265288 7.41035857,4.9189867 7.21115538,5.10817448 L5.9561753,6.43248892 L10.2589641,6.43248892 C10.5179283,6.45350978 10.7569721,6.70576015 10.7569721,6.97903139 Z M15,6.97903139 C15,8.47151274 14.4820717,9.94297323 13.5258964,11.1411625 C13.7250996,11.5405589 13.9840637,11.8768927 14.3227092,12.1081222 C14.561753,12.2762891 14.6812749,12.5705812 14.6215139,12.8858942 C14.561753,13.2012072 14.3426295,13.4114158 14.0438247,13.4534575 C13.8047809,13.4954993 13.5657371,13.5165201 13.3266932,13.5165201 C12.5896414,13.5165201 11.9123506,13.3483532 11.2948207,13.0330403 C10.1394422,13.6636662 8.84462151,14 7.49003984,14 C3.34661355,14 0,10.8678912 0,7.00005225 C0,3.13221325 3.36653386,0.000104498497 7.49003984,0.000104498497 C11.6334661,-0.0209163656 15,3.13221325 15,6.97903139 Z M14.0039841,6.97903139 C14.0039841,3.69977658 11.0956175,1.03012684 7.50996016,1.03012684 C3.92430279,1.03012684 1.01593625,3.69977658 1.01593625,6.97903139 C1.01593625,10.2582862 3.92430279,12.9279359 7.50996016,12.9279359 C8.78486056,12.9279359 10,12.5916021 11.0756972,11.9609762 C11.2350598,11.8768927 11.4143426,11.8768927 11.5737052,11.9609762 C12.0318725,12.2552683 12.5697211,12.4234352 13.187251,12.4444561 C12.8884462,12.1081222 12.6693227,11.7087258 12.4900398,11.2252459 C12.4302789,11.0360582 12.4701195,10.8258495 12.5896414,10.6787035 C13.5059761,9.62766026 14.0039841,8.34538755 14.0039841,6.97903139 Z" id="Reply"></path>
                    </g>
                </g>
            </g>
        </g>
    </g>
</svg>