<?xml version="1.0" encoding="utf-8"?>
<!-- Generator: Adobe Illustrator 20.0.0, SVG Export Plug-In . SVG Version: 6.00 Build 0)  -->
<svg version="1.1" id="Layer_1" xmlns="http://www.w3.org/2000/svg" xmlns:xlink="http://www.w3.org/1999/xlink" x="0px" y="0px"
	 viewBox="0 0 500 500" style="enable-background:new 0 0 500 500;" xml:space="preserve">
<style type="text/css">
	.st0{fill:#010101;}
</style>
<path class="st0" d="M247.1,0c64.6-0.6,125.6,23.1,173,66.9V47.4c0-7.1,5.3-12.4,12.4-12.4S445,40.3,445,47.4l0.6,49.8
	c0,7.1-5.3,12.4-12.4,12.4l-49.8,0.6l0,0c-7.1,0-12.4-5.3-12.4-12.4s5.3-12.4,12.4-12.4h19c-42.1-39.1-96.6-59.8-154.6-59.2
	c-60.4-0.6-116.1,23.7-158.2,66.3c-60.4,62.2-80,151.1-50.4,232.8c2.4,6.5-1.2,13.6-7.7,16c-1.2,0.6-3,0.6-4.1,0.6
	c-5.3,0-10.1-3-11.8-8.3c-16-43.2-19-90-9.5-135.1c9.5-46.8,32.6-88.9,65.8-123.2C118,27.3,180.8,0.6,247.1,0z M252.4,473.9
	c-58.1,0.6-112.6-20.1-154.6-59.2h19c7.1,0,12.4-5.9,12.4-12.4c0-7.1-5.9-12.4-12.4-12.4l0,0L67,390.4c-7.1,0-12.4,5.9-12.4,12.4
	l0.6,49.8c0,7.1,5.9,12.4,12.4,12.4l0,0c7.1,0,12.4-5.9,12.4-12.4v-19.5c46.2,43.2,106,66.9,170,66.9c1.2,0,1.8,0,3,0
	c66.9-0.6,129.1-27.3,175.4-75.2c33.2-34.4,56.3-77,65.8-123.2c9.5-45,5.9-92.4-9.5-135.7c-2.4-6.5-9.5-10.1-16-7.7
	c-6.5,2.4-10.1,9.5-7.7,16c29.6,81.2,10.1,170-50.4,232.2C368.6,449.1,312.9,473.3,252.4,473.9z M314.6,189v28.4h17.8
	c7.1,0,12.4,5.9,12.4,12.4v106.6c0,7.1-5.9,12.4-12.4,12.4H167.7c-7.1,0-12.4-5.9-12.4-12.4V229.9c0-7.1,5.9-12.4,12.4-12.4h17.8
	V189c0-35.5,29-65.2,65.2-65.2S314.6,153.4,314.6,189z M210.4,217.4h79.4V189c0-21.9-17.8-39.7-39.7-39.7s-39.7,17.8-39.7,39.7
	L210.4,217.4z M320,242.9H180.2v81.2H320V242.9z"/>
</svg>
