<?xml version="1.0" encoding="UTF-8"?>
<svg width="500px" height="500px" viewBox="0 0 500 500" version="1.1" xmlns="http://www.w3.org/2000/svg" xmlns:xlink="http://www.w3.org/1999/xlink">
    <!-- Generator: Sketch 42 (36781) - http://www.bohemiancoding.com/sketch -->
    <title>Icon - Save</title>
    <desc>Created with Sketch.</desc>
    <defs></defs>
    <g id="Dashboard" stroke="none" stroke-width="1" fill="none" fill-rule="evenodd">
        <g id="Icon---Save" fill="#000000">
            <path d="M100.600177,300.995718 C148.08309,300.968987 402.403798,300.826172 416,300.826172 C431,300.826172 431,288 431,288 C431,288 431,275 416,275 C401,275 93,275 93,275 L93,275.184272 C63.6021661,277.621065 63.0303749,303.947044 63.019263,305 L63,305 L63,456.524957 C63,472 78,472 78,472 C78,472 93,472 93,456.524957 L93,308.960907 C93.5220004,309.029306 93.53125,309.030518 93.53125,309.030518 C93.5672563,302.232727 98.9182298,301.163802 100.600177,300.995718 Z M0,50.0000001 C0,-0.0556639252 50,1.37290883e-07 50,1.37290883e-07 L111.994141,1.37290883e-07 L111.994141,147.966797 C111.994141,147.966797 111.994141,182.6875 149.544922,182.6875 L348.289063,182.6875 C381.919922,182.6875 381.919922,147.966797 381.919922,147.966797 L381.919922,1.37290883e-07 L430.625,1.37290883e-07 L500,69.6562501 L500,450 C500,450 500,499.932617 450,500 C400,500.067383 50,500 50,500 C50,500 0,499.936524 0,450 L0,50.0000001 Z M284,32.0069734 C284,27.5848442 287.579658,24.0000001 291.995785,24.0000001 L346.004215,24.0000001 C350.420165,24.0000001 354,27.5907531 354,32.0069734 L354,143.993027 C354,148.415156 350.420342,152 346.004215,152 L291.995785,152 C287.579835,152 284,148.409247 284,143.993027 L284,32.0069734 Z" id="Combined-Shape"></path>
        </g>
    </g>
</svg>