<svg id="Layer_1" data-name="Layer 1" xmlns="http://www.w3.org/2000/svg" viewBox="0 0 20 20"><title>Save_Icon_Test</title><path d="M158.67,249.52H145.33a1,1,0,0,0-1,1v6.19a1,1,0,0,0,1,.95h13.34a1,1,0,0,0,1-.95v-6.19A1,1,0,0,0,158.67,249.52Zm0,6.91a.24.24,0,0,1-.24.24H145.57a.24.24,0,0,1-.24-.24v-5.72a.23.23,0,0,1,.24-.23h12.86a.23.23,0,0,1,.24.23Z" transform="translate(-142 -240)"/><path d="M159,240.28a1,1,0,0,0-.68-.28H142v20h20V243.73a1,1,0,0,0-.28-.68Zm-11.24.91A.24.24,0,0,1,148,241h8.1a.24.24,0,0,1,.24.24v4.29a.23.23,0,0,1-.24.23H148a.23.23,0,0,1-.24-.23Zm13.34,17.62a.24.24,0,0,1-.24.24H143.19a.24.24,0,0,1-.24-.24V241.19a.24.24,0,0,1,.24-.24h3.33a.24.24,0,0,1,.24.24v4.52a1,1,0,0,0,1,1h8.58a1,1,0,0,0,1-1v-4.52a.24.24,0,0,1,.24-.24h.69a.24.24,0,0,1,.17.07l2.64,2.64a.24.24,0,0,1,.07.17Z" transform="translate(-142 -240)"/></svg>