<?xml version="1.0" encoding="UTF-8" standalone="no"?>
<svg width="1000px" height="1000px" viewBox="0 0 1000 1000" version="1.1" xmlns="http://www.w3.org/2000/svg" xmlns:xlink="http://www.w3.org/1999/xlink">
    <!-- Generator: Sketch 48.2 (47327) - http://www.bohemiancoding.com/sketch -->
    <title>Artboard</title>
    <desc>Created with Sketch.</desc>
    <defs></defs>
    <g id="Page-1" stroke="none" stroke-width="1" fill="none" fill-rule="evenodd">
        <g id="Artboard" fill="#000000" fill-rule="nonzero">
            <path d="M539.598047,334.485211 C539.598047,329.09034 540.781874,323.577085 543.267913,318.385155 L682.790459,21.0076455 C689.233864,7.24142094 703.304501,-1.3836092 718.457495,-0.893166306 C733.610489,-0.351987944 747.089213,9.16936885 752.636291,23.3414772 L810.711494,171.979497 C814.38136,181.348647 814.178418,191.95236 810.018109,201.22004 L678.427208,497.904165 C669.903649,517.132908 647.410924,525.791762 628.283651,517.285115 C609.054907,508.761556 600.345318,486.218095 608.868877,467.090822 L734.016373,184.866306 L713.992774,133.589657 L612.132859,350.70365 C603.220328,369.729452 580.52466,377.897863 561.498859,368.985332 C547.732634,362.525015 539.598047,348.792614 539.598047,334.485211 Z M232.614621,183.902332 C232.614621,179.843495 233.308006,175.784657 234.593305,171.861114 L283.553035,25.1003069 C288.406728,10.4377556 301.783981,0.172278594 317.139917,-0.808607187 C332.597324,-1.85714026 347.158404,6.61568346 353.906222,20.5510263 L667.231581,667.631228 C676.245583,686.707766 668.415409,709.352698 649.592549,718.468171 C630.668218,727.634379 607.871079,719.702734 598.755606,700.829139 L326.153919,137.88526 L311.491367,181.923649 L494.511125,593.303763 C498.975846,603.264827 498.874375,614.714132 494.308183,624.573725 L438.414605,746.812387 C429.688104,765.93966 407.093907,774.361748 388.068106,765.584512 C368.839362,756.858011 360.417274,734.229991 369.245246,715.204189 L418.002034,608.57514 L235.861691,199.376651 C233.696978,194.45531 232.614621,189.212645 232.614621,183.902332 Z M527.117121,810.26555 C527.117121,798.275067 528.300949,786.183113 530.584045,774.19263 C534.642882,753.526382 554.565011,740.047658 575.180524,744.072672 C595.897508,748.080774 609.274761,768.544081 605.300482,788.669151 C598.163693,825.672222 609.765204,863.48706 636.215296,890.19083 C680.219862,933.992453 751.756876,933.992453 795.659971,890.038623 C817.07034,868.628254 828.857881,840.300949 828.857881,810.113344 C828.857881,779.993386 817.171811,751.649169 795.761442,730.391007 C758.09881,692.542345 698.450808,686.487912 653.955799,715.931397 C636.418238,727.566732 612.826244,722.763774 601.241645,705.226213 C589.555574,687.587181 594.510739,663.995186 611.946829,652.512058 C686.561796,603.163356 786.443027,613.276627 849.676336,676.54376 C885.343373,712.160061 904.978,759.63155 904.978,810.07952 C904.978,860.662785 885.258813,908.134275 849.490306,943.852047 C776.059167,1017.43539 656.255807,1017.51995 582.435697,943.953518 C546.633366,907.880597 527.117121,859.766459 527.117121,810.26555 Z M96.9479707,810.214815 C96.9479707,708.743872 179.494583,626.146525 280.965525,626.146525 C382.436468,626.146525 465.084551,708.743872 465.084551,810.214815 C465.084551,911.685758 382.436468,994.283105 280.965525,994.283105 C179.494583,994.283105 96.9479707,911.685758 96.9479707,810.214815 Z M388.981344,810.214815 C388.981344,750.668283 340.528969,702.249732 280.965525,702.249732 C221.402082,702.249732 173.051178,750.651372 173.051178,810.214815 C173.051178,869.778258 221.402082,918.179898 280.965525,918.179898 C340.528969,918.179898 388.981344,869.778258 388.981344,810.214815 Z" id="Shape"></path>
        </g>
    </g>
</svg>