<?xml version="1.0" encoding="UTF-8"?>
<svg width="1000px" height="980px" viewBox="0 0 1000 980" version="1.1" xmlns="http://www.w3.org/2000/svg" xmlns:xlink="http://www.w3.org/1999/xlink">
    <!-- Generator: Sketch 48.2 (47327) - http://www.bohemiancoding.com/sketch -->
    <title>A</title>
    <desc>Created with Sketch.</desc>
    <defs></defs>
    <g id="Artboard" stroke="none" stroke-width="1" fill="none" fill-rule="evenodd" transform="translate(0.000000, -20.000000)">
        <g id="Sort-&amp;-Filter-Copy" fill="#000000">
            <g id="A,Z" transform="translate(0.000000, 20.000000)">
                <path d="M0,980.284365 L157.057512,571.321109 L215.361278,571.321109 L382.740509,980.284365 L321.089159,980.284365 L273.386078,856.423733 L102.380296,856.423733 L57.4668694,980.284365 L0,980.284365 Z M800.089199,430.858125 C794.507844,436.450621 792.229739,441.928985 792.229739,449.804132 C792.45755,545.67549 792.45755,641.546849 792.343644,737.532339 C792.343644,753.054369 785.737142,761.500179 771.385085,764.810024 C763.070005,766.636145 755.780071,764.353493 749.857,758.4186 C714.660289,723.379901 679.691388,688.112937 644.608582,652.960105 C639.027227,647.36761 637.888175,640.519655 637.888175,632.872773 C638.00208,571.012921 637.888175,509.153068 638.115985,447.293215 C638.115985,441.130057 636.179596,436.793019 631.851198,432.455981 C567.722563,368.42761 503.707833,304.170973 439.693103,240.028469 C428.188676,228.50108 427.277434,213.549713 437.870619,202.707119 C441.287776,199.283142 446.641321,194.717839 450.514098,194.717839 L980.173342,194.717839 C986.324223,194.717839 998.170366,205.902831 999.765039,217.886751 C1001.018,227.131489 997.145219,233.86531 990.880432,240.142602 L800.089199,430.858125 Z M12.274477,408.963255 L12.274477,358.749486 L221.777481,96.8009888 C236.65571,78.2032034 250.789815,62.0233728 264.18022,48.2610117 L35.9865347,48.2610117 L35.9865347,0 L328.900189,0 L328.900189,48.2610117 L99.3116772,331.968809 L74.4837579,360.702243 L335.595359,360.702243 L335.595359,408.963255 L12.274477,408.963255 Z M118.002358,812.347202 L256.648155,812.347202 L213.966451,699.087256 C200.948001,664.681353 191.277298,636.413143 184.954051,614.281779 C179.746671,640.504656 172.400656,666.541165 162.915785,692.392087 L118.002358,812.347202 Z" id="A"></path>
            </g>
        </g>
    </g>
</svg>