<?xml version="1.0" encoding="UTF-8"?>
<svg width="1000px" height="1000px" viewBox="0 0 1000 1000" version="1.1" xmlns="http://www.w3.org/2000/svg" xmlns:xlink="http://www.w3.org/1999/xlink">
    <!-- Generator: Sketch 48.1 (47250) - http://www.bohemiancoding.com/sketch -->
    <title>Artboard Copy 25</title>
    <desc>Created with Sketch.</desc>
    <defs></defs>
    <g id="Page-1" stroke="none" stroke-width="1" fill="none" fill-rule="evenodd">
        <g id="Artboard-Copy-25" fill="#000000">
            <g id="A,Z" transform="translate(-1.000000, 8.000000)">
                <path d="M117.287458,239.565871 L255.093288,239.565871 L212.670165,126.992093 C199.730586,92.7946339 190.118471,64.6976831 183.833533,42.7003982 C178.657701,68.764408 171.356191,94.6431785 161.928783,120.337486 L117.287458,239.565871 Z M0,406.485609 L156.106001,0 L214.056542,0 L380.42173,406.485609 L319.143886,406.485609 L271.729807,283.37537 L101.76004,283.37537 L57.1187145,406.485609 L0,406.485609 Z M12.2001138,974.345451 L12.2001138,924.435894 L220.433874,664.074375 C235.221965,645.589262 249.27044,629.507455 262.579722,615.828471 L35.7685154,615.828471 L35.7685154,567.859842 L326.907594,567.859842 L326.907594,615.828471 L98.7100115,897.817464 L74.0325086,926.376822 L333.562202,926.376822 L333.562202,974.345451 L12.2001138,974.345451 Z M801.30033,428.247832 C795.752789,433.806447 793.488486,439.251621 793.488486,447.079057 C793.714916,542.369593 793.714916,637.660128 793.601701,733.064104 C793.601701,748.492096 787.035223,756.886738 772.770116,760.176531 C764.505411,761.991588 757.259643,759.722766 751.372456,753.823828 C716.388979,718.997406 681.631932,683.944102 646.761671,649.004239 C641.214129,643.445625 640.081978,636.639158 640.081978,629.038603 C640.195193,567.55352 640.081978,506.068436 640.308408,444.583353 C640.308408,438.457533 638.383751,434.14677 634.081576,429.836008 C570.341454,366.195543 506.714548,302.328197 443.087642,238.574291 C431.652914,227.116738 430.747193,212.255952 441.2762,201.479047 C444.672654,198.075813 449.993766,193.538169 453.84308,193.538169 L980.293459,193.538169 C986.407076,193.538169 998.18145,204.655398 999.766462,216.566715 C1001.01183,225.755445 997.162514,232.448471 990.935682,238.687732 L801.30033,428.247832 Z" id="A"></path>
            </g>
        </g>
    </g>
</svg>