<?xml version="1.0" encoding="UTF-8"?>
<svg width="1000px" height="996px" viewBox="0 0 1000 996" version="1.1" xmlns="http://www.w3.org/2000/svg" xmlns:xlink="http://www.w3.org/1999/xlink">
    <!-- Generator: Sketch 48.1 (47250) - http://www.bohemiancoding.com/sketch -->
    <title>Combined Shape</title>
    <desc>Created with Sketch.</desc>
    <defs></defs>
    <g id="Artboard-Copy-9" stroke="none" stroke-width="1" fill="none" fill-rule="evenodd" transform="translate(0.000000, -2.000000)">
        <path d="M517.944942,551 L0,551 L0,449 L317.577718,449 C286.603098,425.449839 262.894417,400.293004 246.451187,373.529024 C225.865332,340.02226 215.572559,301.807602 215.572559,258.883905 C215.572559,209.390254 229.15026,164.715239 256.306069,124.85752 C283.461877,84.9998007 323.209501,54.5594719 375.550132,33.5356201 C427.890763,12.5117682 486.909962,2 552.609499,2 C631.010946,2 697.147488,15.1397103 751.021108,41.4195251 C804.894728,67.6993398 843.985367,102.738567 868.294195,146.538259 C892.603024,190.33795 904.757256,232.166028 904.757256,272.023747 C904.757256,275.965719 904.538261,282.535574 904.100264,291.733509 L779.92876,301.588391 C779.92876,274.432582 777.519813,253.19005 772.701847,237.860158 C763.941909,211.142347 750.364208,188.585844 731.968338,170.189974 C713.572467,151.794103 688.278525,137.011929 656.085752,125.843008 C623.892979,114.674087 587.868273,109.08971 548.010554,109.08971 C477.931048,109.08971 423.40125,124.857362 384.419525,156.39314 C354.635735,180.48297 339.744063,212.456265 339.744063,252.313984 C339.744063,275.965817 345.875928,297.098852 358.139842,315.71372 C370.403755,334.328589 392.522268,352.614686 424.496042,370.572559 C447.271882,383.27447 501.363689,408.458915 586.773087,446.126649 C588.949624,447.090938 591.104931,448.048727 593.239007,449.000017 L1000,449 L1000,551 L770.627336,551 C786.661691,566.667019 800.054991,583.940054 810.807388,602.819261 C829.641255,635.888028 839.058047,673.4457 839.058047,715.493404 C839.058047,767.615036 823.180898,815.684476 791.426121,859.703166 C759.671345,903.721856 715.762813,937.775605 659.699208,961.865435 C603.635604,985.955266 539.470018,998 467.200528,998 C358.139296,998 269.117759,974.239024 200.133245,926.716359 C131.148732,879.193694 96.4379969,793.676079 96,670.16095 L222.14248,658.335092 L220.828496,691.841689 C220.828496,729.071426 229.369308,763.125175 246.451187,794.003958 C263.533067,824.88274 291.783444,848.753214 331.203166,865.616095 C370.622888,882.478976 417.487855,890.91029 471.799472,890.91029 C548.886929,890.91029 607.687133,874.047662 648.201847,840.3219 C688.716561,806.596137 708.973615,768.052987 708.973615,724.691293 C708.973615,694.469506 698.242851,666.876114 676.781003,641.91029 C656.459099,619.149759 603.514224,588.846594 517.944942,551 Z" id="Combined-Shape" fill="#000000"></path>
    </g>
</svg>