<?xml version="1.0" encoding="UTF-8"?>
<svg width="500px" height="500px" viewBox="0 0 500 500" version="1.1" xmlns="http://www.w3.org/2000/svg" xmlns:xlink="http://www.w3.org/1999/xlink">
    <!-- Generator: Sketch 45 (43475) - http://www.bohemiancoding.com/sketch -->
    <title>Time_Selector Copy</title>
    <desc>Created with Sketch.</desc>
    <defs></defs>
    <g id="Page-1" stroke="none" stroke-width="1" fill="none" fill-rule="evenodd">
        <g id="Time_Selector-Copy" fill="#464646">
            <path d="M250,500 C111.921875,500 0,388.078125 0,250 C0,111.921875 111.921875,0 250,0 C388.078125,0 500,111.921875 500,250 C500,388.078125 388.078125,500 250,500 Z M250,450 C360.446429,450 450,360.446429 450,250 C450,139.553571 360.446429,50 250,50 C139.553571,50 50,139.553571 50,250 C50,360.446429 139.553571,450 250,450 Z" id="Shape" fill-rule="nonzero"></path>
            <polygon id="Path-2" points="224.806641 139.203125 274.863281 139.203125 274.863281 258.460938 360.154297 343.597656 325.689453 377.609375 224.806641 279.419922"></polygon>
        </g>
    </g>
</svg>