<?xml version="1.0" encoding="utf-8"?>
<!-- Generated by IcoMoon.io -->
<!DOCTYPE svg PUBLIC "-//W3C//DTD SVG 1.1//EN" "http://www.w3.org/Graphics/SVG/1.1/DTD/svg11.dtd">
<svg version="1.1" xmlns="http://www.w3.org/2000/svg" xmlns:xlink="http://www.w3.org/1999/xlink" width="500" height="500" viewBox="0 0 500 500">
<path d="M250 0c-138.1 0-250 111.9-250 250s111.9 250 250 250 250-111.9 250-250-111.9-250-250-250v0zM250 437.5c-17.3 0-31.2-14-31.2-31.2 0-17.3 14-31.2 31.2-31.2s31.2 14 31.2 31.2c0 17.2-13.9 31.2-31.2 31.2v0zM301.5 257.6c-14.8 11.4-22.9 17.7-22.9 35.8v25.4c0 14.3-12.7 26.1-28.3 26.1-15.7 0-28.4-11.7-28.4-26.1v-25.4c0-42.4 26-62.4 43.1-75.7 14.8-11.4 22.9-17.7 22.9-35.8 0-20.4-16.9-37.1-37.7-37.1s-37.7 16.7-37.7 37.1c0 14.4-12.8 26-28.4 26s-28.4-11.6-28.4-26c0-49.2 42.4-89.2 94.5-89.2 52 0 94.4 40 94.4 89.2 0 42.4-25.9 62.4-43.1 75.7v0z"></path>
</svg>
