<?xml version="1.0" encoding="utf-8"?>
<!-- Generated by IcoMoon.io -->
<!DOCTYPE svg PUBLIC "-//W3C//DTD SVG 1.1//EN" "http://www.w3.org/Graphics/SVG/1.1/DTD/svg11.dtd">
<svg version="1.1" xmlns="http://www.w3.org/2000/svg" xmlns:xlink="http://www.w3.org/1999/xlink" width="500" height="500" viewBox="0 0 500 500">
<path d="M415.8 0h-331.6c-17 0-30.9 13.8-30.9 30.9v364c0 17 13.8 30.9 30.9 30.9h145.6c8.3 0 14.9-6.7 14.9-14.9 0-8.3-6.7-14.9-14.9-14.9h-145.6c-0.5 0-1-0.4-1-1v-364c0-0.5 0.4-1 1-1h331.6c0.5 0 1 0.4 1 1v364c0 0.5-0.4 1-1 1h-25.9c-8.2 0-14.9 6.7-14.9 14.9 0 8.3 6.7 14.9 14.9 14.9h25.9c17 0 30.9-13.8 30.9-30.9v-364c0-17.1-13.9-30.9-30.9-30.9z"></path>
<path d="M310 119.2c-9.5 0-13.6 4.6-33.6 37.7-20.1 33.4-20.1 34.7-20.1 39v273.3c0 17 13.8 30.9 30.9 30.9h45.1c17 0 30.9-13.8 30.9-30.9v-273.3c0-4.3 0-5.6-19.8-38.9-20-33.5-23.8-37.8-33.4-37.8zM309.9 159.5c6 9.7 13.4 22.2 18.5 31.2h-37.3c5.3-9.1 12.7-21.5 18.8-31.2zM332.2 470.1h-45.1c-0.5 0-1-0.4-1-1v-248.5h47.1v248.5c0 0.6-0.4 1-1 1z"></path>
</svg>
