<?xml version="1.0" encoding="utf-8"?>
<!-- Generated by IcoMoon.io -->
<!DOCTYPE svg PUBLIC "-//W3C//DTD SVG 1.1//EN" "http://www.w3.org/Graphics/SVG/1.1/DTD/svg11.dtd">
<svg version="1.1" xmlns="http://www.w3.org/2000/svg" xmlns:xlink="http://www.w3.org/1999/xlink" width="500" height="500" viewBox="0 0 500 500">
<path d="M439.3 63.4h-9.5c-98.5 0-172.8-57.9-173.5-58.4l-1.3-1-5-4-5 4-1.3 1c-0.7 0.5-75 58.4-173.4 58.4h-9.5v237.8c-0.1 140 187.3 198.2 189.2 198.8 1.9-0.6 189.3-58.8 189.3-198.8v0-237.8zM250 460.4c-20.7-7-154.6-56.3-154.6-163.7 0 0 0-187.4 0-200.9 77.8-2.8 136.9-39.7 154.6-52.3 17.7 12.5 76.8 49.5 154.6 52.2 0 13.5 0 200.9 0 200.9 0 107.5-133.9 156.8-154.6 163.8z"></path>
<path d="M227.9 348.8c-3.1 0-6.2-1-8.8-2.8l-57.1-41.2c-6.7-4.9-8.2-14.2-3.4-20.9 4.9-6.7 14.2-8.2 20.9-3.4l43.9 31.7 92.8-153.6c4.3-7.1 13.5-9.4 20.6-5.1s9.4 13.5 5.1 20.6l-101.1 167.4c-2.2 3.6-5.7 6.1-9.8 6.9-1.1 0.3-2.1 0.4-3.1 0.4z"></path>
</svg>
