<?xml version="1.0" encoding="UTF-8"?>
<svg width="999px" height="1000px" viewBox="0 0 999 1000" version="1.1" xmlns="http://www.w3.org/2000/svg" xmlns:xlink="http://www.w3.org/1999/xlink">
    <!-- Generator: Sketch 48.1 (47250) - http://www.bohemiancoding.com/sketch -->
    <title>Combined Shape</title>
    <desc>Created with Sketch.</desc>
    <defs></defs>
    <g id="Artboard-Copy-10" stroke="none" stroke-width="1" fill="none" fill-rule="evenodd">
        <path d="M707.718852,0 L813.664062,0 L813.664062,462.554606 C813.664062,543.015117 804.562331,606.90927 786.358596,654.238983 C768.15486,701.568695 735.297611,740.069018 687.785861,769.741107 C640.274111,799.413196 577.927252,814.249018 500.743414,814.249018 C425.744024,814.249018 364.398355,801.324559 316.704568,775.475255 C269.010781,749.62595 234.970306,712.217835 214.582123,663.249787 C194.193939,614.281738 184,547.384014 184,462.554606 L184,0 L289.945211,0 L289.945211,462.008497 C289.945211,531.546766 296.40744,582.789513 309.332092,615.738274 C322.256744,648.687036 344.464969,674.080866 375.957431,691.920527 C407.449893,709.760187 445.950216,718.679884 491.459555,718.679884 C569.371543,718.679884 624.892104,701.022525 658.022902,665.707279 C691.153701,630.392032 707.718852,562.493117 707.718852,462.008497 L707.718852,0 Z M-1,912 L999,912 L999,1000 L-1,1000 L-1,912 Z" id="Combined-Shape" fill="#000000"></path>
    </g>
</svg>