<?xml version="1.0" encoding="UTF-8"?>
<svg width="1000px" height="1000px" viewBox="0 0 1000 1000" version="1.1" xmlns="http://www.w3.org/2000/svg" xmlns:xlink="http://www.w3.org/1999/xlink">
    <!-- Generator: Sketch 48.1 (47250) - http://www.bohemiancoding.com/sketch -->
    <title>Artboard Copy 19</title>
    <desc>Created with Sketch.</desc>
    <defs></defs>
    <g id="Page-1" stroke="none" stroke-width="1" fill="none" fill-rule="evenodd">
        <g id="Artboard-Copy-19" fill="#000000">
            <g id="Wrap-Text-Icon" transform="translate(0.000000, 197.000000)">
                <path d="M932.724023,104.853084 C936.917107,109.150078 940.749264,113.546214 944.220492,118.041493 C1005.9215,197.944985 1029.36031,298.028557 945.60051,391.49578 C889.760641,453.807263 809.714793,495.842497 705.462968,517.601482 L705.193578,605.185085 L522.740192,458.975503 C522.718643,458.958234 522.715173,458.926767 522.732441,458.905218 C522.734829,458.902238 522.73755,458.899542 522.740551,458.897182 L705.462968,315.207365 L705.462968,390.094343 L741.807547,390.062739 C830.723135,389.985466 902.740818,317.842498 902.663545,228.926911 C902.638127,199.679081 894.645738,170.990679 879.54475,145.942798 C869.899038,129.943538 875.049607,109.154179 891.048867,99.5084672 C904.497154,91.4006987 921.756834,93.6141735 932.723995,104.853111 L932.724023,104.853084 Z M0,0 L599.610253,0 L599.610253,74.9512817 L0,74.9512817 L0,0 Z M0,449.70769 L299.805127,449.70769 L299.805127,524.658972 L0,524.658972 L0,449.70769 Z" id="Combined-Shape"></path>
            </g>
        </g>
    </g>
</svg>