<?xml version="1.0" encoding="utf-8"?>
<!-- Generator: Adobe Illustrator 20.0.0, SVG Export Plug-In . SVG Version: 6.00 Build 0)  -->
<svg version="1.1" id="Layer_1" xmlns="http://www.w3.org/2000/svg" xmlns:xlink="http://www.w3.org/1999/xlink" x="0px" y="0px"
	 viewBox="0 0 500 500" style="enable-background:new 0 0 500 500;" xml:space="preserve">
<g>
	<path d="M250,1C112.5,1,1,112.5,1,250s111.5,249,249,249s249-111.5,249-249S387.5,1,250,1z M411.9,411.9
		c-21,21-45.5,37.6-72.8,49.1c-28.2,11.9-58.2,18-89.1,18c-30.9,0-60.9-6.1-89.1-18c-27.3-11.5-51.8-28-72.8-49.1
		c-21-21-37.6-45.5-49.1-72.8c-11.9-28.2-18-58.2-18-89.1c0-30.9,6.1-60.9,18-89.1c11.5-27.3,28-51.8,49.1-72.8
		c21-21,45.5-37.6,72.8-49.1c28.2-11.9,58.2-18,89.1-18c30.9,0,60.9,6.1,89.1,18c27.3,11.5,51.8,28,72.8,49.1
		c21,21,37.6,45.5,49.1,72.8c11.9,28.2,18,58.2,18,89.1c0,30.9-6.1,60.9-18,89.1C449.5,366.4,433,390.9,411.9,411.9z"/>
	<polygon points="322.6,153 250,225.6 177.4,153 153,177.4 225.6,250 153,322.6 177.4,347 250,274.4 322.6,347 347,322.6 274.4,250 
		347,177.4 	"/>
</g>
</svg>
