<?xml version="1.0" encoding="utf-8"?>
<!-- Generated by IcoMoon.io -->
<!DOCTYPE svg PUBLIC "-//W3C//DTD SVG 1.1//EN" "http://www.w3.org/Graphics/SVG/1.1/DTD/svg11.dtd">
<svg version="1.1" xmlns="http://www.w3.org/2000/svg" xmlns:xlink="http://www.w3.org/1999/xlink" width="32" height="32" viewBox="0 0 32 32">
<path fill="#000" d="M28.454 31.827c1.12 0 2.035-0.915 2.035-2.035v-3.405c0-1.050-0.8-1.914-1.818-2.022v-9.491c1.018-0.109 1.818-0.973 1.818-2.022v-0.73c0-0.134-0.013-0.269-0.038-0.39h0.442c0.218 0 0.429-0.090 0.582-0.243 0.704-0.704 0.704-1.856 0-2.56-0.051-0.051-0.109-0.096-0.166-0.128-14.803-8.614-15.021-8.627-15.315-8.627 0 0 0 0 0 0-0.294 0-0.467 0.006-15.29 8.627-0.064 0.038-0.115 0.077-0.166 0.128-0.704 0.704-0.704 1.856 0 2.56 0.154 0.154 0.365 0.243 0.582 0.243h0.442c-0.026 0.128-0.038 0.256-0.038 0.39v0.73c0 1.12 0.915 2.035 2.035 2.035h0.48v9.466h-0.48c-1.12 0-2.035 0.915-2.035 2.035v3.405c0 1.12 0.915 2.035 2.035 2.035zM15.994 1.907c1.632 0.87 9.107 5.184 14.253 8.179h-28.486c5.139-2.995 12.602-7.309 14.234-8.179zM5.67 14.886h1.76v9.466h-1.76v-9.466zM10.56 14.886v9.466h-1.491v-9.466h1.491zM17.094 14.886v9.466h-1.491v-9.466h1.491zM23.629 14.886v9.466h-1.491v-9.466h1.491zM27.027 24.352h-1.76v-9.466h1.76v9.466zM20.493 24.352h-1.76v-9.466h1.76v9.466zM13.965 24.352h-1.76v-9.466h1.76v9.466zM28.845 26.394v3.398c0 0.218-0.179 0.39-0.39 0.39h-24.902c-0.218 0-0.39-0.179-0.39-0.39v-3.405c0-0.218 0.179-0.39 0.39-0.39h24.902c0.218 0 0.39 0.179 0.39 0.397zM28.845 12.122v0.73c0 0.218-0.179 0.39-0.39 0.39h-24.902c-0.218 0-0.39-0.179-0.39-0.39v-0.73c0-0.218 0.179-0.39 0.39-0.39h24.902c0.218 0 0.39 0.173 0.39 0.39z"></path>
</svg>
