<?xml version="1.0" encoding="utf-8"?>
<!-- Generated by IcoMoon.io -->
<!DOCTYPE svg PUBLIC "-//W3C//DTD SVG 1.1//EN" "http://www.w3.org/Graphics/SVG/1.1/DTD/svg11.dtd">
<svg version="1.1" xmlns="http://www.w3.org/2000/svg" xmlns:xlink="http://www.w3.org/1999/xlink" width="32" height="32" viewBox="0 0 32 32">
<path fill="#000" d="M28.646 0h-25.293c-0.96 0-1.747 0.781-1.747 1.747v28.512c0 0.96 0.781 1.747 1.747 1.747h18.067c0.006 0 0.013 0 0.019 0 0.051 0 0.096-0.006 0.147-0.013 0.026-0.006 0.051-0.013 0.077-0.026 0.026-0.006 0.051-0.013 0.077-0.026 0.032-0.013 0.058-0.032 0.090-0.045 0.019-0.013 0.038-0.019 0.058-0.032 0.045-0.032 0.090-0.064 0.134-0.102l8.102-7.763c0.038-0.038 0.070-0.077 0.102-0.122 0.006-0.013 0.019-0.026 0.026-0.038 0.019-0.032 0.038-0.070 0.058-0.102 0.006-0.013 0.013-0.026 0.019-0.038 0.019-0.051 0.038-0.096 0.045-0.147 0-0.006 0-0.013 0-0.019 0.006-0.045 0.013-0.090 0.013-0.141 0-0.006 0-0.013 0-0.019v-21.626c0.006-0.966-0.774-1.747-1.741-1.747zM3.354 1.747h25.293v20.749h-6.355c-0.96 0-1.747 0.781-1.747 1.747v6.010h-17.19v-28.506zM22.291 29.082v-4.838h5.056l-5.056 4.838z"></path>
<path fill="#000" d="M6.4 6.195h19.93c0.48 0 0.87-0.39 0.87-0.87s-0.39-0.87-0.87-0.87h-19.93c-0.48 0-0.87 0.39-0.87 0.87s0.39 0.87 0.87 0.87z"></path>
<path fill="#000" d="M6.4 10.432h19.93c0.48 0 0.87-0.39 0.87-0.87s-0.39-0.87-0.87-0.87h-19.93c-0.48 0-0.87 0.39-0.87 0.87s0.39 0.87 0.87 0.87z"></path>
<path fill="#000" d="M6.4 14.669h19.93c0.48 0 0.87-0.39 0.87-0.87s-0.39-0.87-0.87-0.87h-19.93c-0.48 0-0.87 0.39-0.87 0.87s0.39 0.87 0.87 0.87z"></path>
<path fill="#000" d="M26.33 18.912c0.48 0 0.87-0.39 0.87-0.87s-0.39-0.87-0.87-0.87h-19.93c-0.48 0-0.87 0.39-0.87 0.87s0.39 0.87 0.87 0.87h19.93z"></path>
</svg>
