<?xml version="1.0" encoding="UTF-8"?>
<svg width="501px" height="466px" viewBox="0 0 501 466" version="1.1" xmlns="http://www.w3.org/2000/svg" xmlns:xlink="http://www.w3.org/1999/xlink">
    <!-- Generator: Sketch 44 (41411) - http://www.bohemiancoding.com/sketch -->
    <title>Shape</title>
    <desc>Created with Sketch.</desc>
    <defs></defs>
    <g id="Page-1" stroke="none" stroke-width="1" fill="none" fill-rule="evenodd">
        <path d="M249.3737,205.6742 C257.475161,205.6742 265.67664,208.574723 272.177812,214.275751 L489.116925,405.210176 C503.419504,417.812448 504.819757,439.616379 492.217484,453.918958 C479.615212,468.221537 457.811281,469.621789 443.508702,457.019517 L249.473718,286.188716 L58.339257,455.919319 C44.0366783,468.621609 22.2327471,467.321374 9.53045691,453.018796 C-3.17183329,438.716217 -1.77158082,416.812268 12.4309799,404.209995 L226.469571,214.375769 C233.070761,208.574723 241.27224,205.6742 249.3737,205.6742 Z M249.3737,0.959745242 C257.475161,0.959745242 265.67664,3.8602682 272.177812,9.56129609 L489.116925,200.495721 C503.419504,213.097993 504.819757,234.901925 492.217484,249.204503 C479.615212,263.507082 457.811281,264.907334 443.508702,252.305062 L249.473718,81.4742619 L58.339257,251.204864 C44.0366783,263.907154 22.2327471,262.60692 9.53045691,248.304341 C-3.17183329,234.001762 -1.77158082,212.097813 12.4309799,199.495541 L226.469571,9.66131412 C233.070761,3.8602682 241.27224,0.959745242 249.3737,0.959745242 Z" id="Shape" fill="#999999" fill-rule="nonzero"></path>
    </g>
</svg>