<svg xmlns="http://www.w3.org/2000/svg" xmlns:xlink="http://www.w3.org/1999/xlink" preserveAspectRatio="xMidYMid" width="500" height="500" viewBox="0 0 500 500"><defs><style>
      .cls-1 {
        fill: #000;
        fill-rule: evenodd;
      }
    </style></defs><path d="M450 300C422.386 300 400 277.614 400 250 400 222.386 422.386 200 450 200 477.614 200 500 222.386 500 250 500 277.614 477.614 300 450 300ZM250 300C222.386 300 200 277.614 200 250 200 222.386 222.386 200 250 200 277.614 200 300 222.386 300 250 300 277.614 277.614 300 250 300ZM50 300C22.386 300 0 277.614 0 250 0 222.386 22.386 200 50 200 77.614 200 100 222.386 100 250 100 277.614 77.614 300 50 300Z" class="cls-1"/></svg>